<svg width="22" height="14" viewBox="0 0 22 14" fill="none" xmlns="http://www.w3.org/2000/svg">
<g clip-path="url(#clip0_194_3177)">
<path d="M13.9741 1.49731H8.02563V12.5029H13.9741V1.49731Z" fill="#FF5F00"/>
<path d="M8.40343 7C8.40343 4.76389 9.42317 2.78056 10.9906 1.49722C9.83862 0.563891 8.38455 0 6.79828 0C3.04034 0 0 3.13055 0 7C0 10.8694 3.04034 14 6.79828 14C8.38455 14 9.83862 13.4361 10.9906 12.5028C9.42317 11.2389 8.40343 9.23611 8.40343 7Z" fill="#EB001B"/>
<path d="M22.0001 7C22.0001 10.8694 18.9597 14 15.2018 14C13.6155 14 12.1615 13.4361 11.0095 12.5028C12.5958 11.2194 13.5966 9.23611 13.5966 7C13.5966 4.76389 12.5769 2.78056 11.0095 1.49722C12.1615 0.563891 13.6155 0 15.2018 0C18.9597 0 22.0001 3.15 22.0001 7Z" fill="#F79E1B"/>
</g>
<defs>
<clipPath id="clip0_194_3177">
<rect width="22" height="14" fill="white"/>
</clipPath>
</defs>
</svg>
