<svg width="36" height="10" viewBox="0 0 36 10" fill="none" xmlns="http://www.w3.org/2000/svg">
<path fill-rule="evenodd" clip-rule="evenodd" d="M3.32904 0.00170645C3.65065 -0.000252889 4.60649 -0.0879197 5.01136 1.30359C5.28409 2.24093 5.71853 3.77633 6.31468 5.9098H6.55747C7.19678 3.66055 7.63596 2.12515 7.875 1.30359C8.28409 -0.102415 9.30682 0.001734 9.71591 0.001734L12.8721 0.00173801V9.99998H9.65522V4.10785H9.43951L7.64623 9.99998H5.22591L3.43264 4.10348H3.21692V9.99998H0V0.00173801L3.32904 0.00170645ZM17.4916 0.00173801V5.89826H17.7482L19.9296 1.04959C20.353 0.0846929 21.2555 0.00173801 21.2555 0.00173801H24.3685V10H21.0844V4.10348H20.8278L18.6892 8.95215C18.2657 9.91268 17.3205 10 17.3205 10H14.2075V0.00173801H17.4916ZM35.7198 4.75298C35.2617 6.07493 33.8231 7.02167 32.2304 7.02167H28.7863V10H25.6634V4.75298H35.7198Z" fill="#0F754E"/>
<path fill-rule="evenodd" clip-rule="evenodd" d="M32.3809 0.00170898H25.4995C25.6633 2.22766 27.5457 4.13322 29.4944 4.13322H35.9367C36.3085 2.28319 35.0287 0.00170898 32.3809 0.00170898Z" fill="url(#paint0_linear_194_3172)"/>
<defs>
<linearGradient id="paint0_linear_194_3172" x1="35.9999" y1="2.60061" x2="25.4995" y2="2.60061" gradientUnits="userSpaceOnUse">
<stop stop-color="#1F5CD7"/>
<stop offset="1" stop-color="#02AEFF"/>
</linearGradient>
</defs>
</svg>
