<svg width="88" height="20" viewBox="0 0 88 20" fill="none" xmlns="http://www.w3.org/2000/svg">
<path d="M4.53238 9.144C3.30838 9.144 2.28038 8.736 1.44838 7.92C0.632377 7.104 0.224377 6.064 0.224377 4.8C0.224377 3.544 0.632377 2.508 1.44838 1.692C2.27238 0.868 3.30038 0.456 4.53238 0.456C5.44438 0.456 6.22838 0.664 6.88438 1.08V1.992C6.14838 1.52 5.36838 1.284 4.54438 1.284C3.58438 1.284 2.77238 1.62 2.10838 2.292C1.45238 2.948 1.12438 3.784 1.12438 4.8C1.12438 5.824 1.45238 6.664 2.10838 7.32C2.77238 7.984 3.59238 8.316 4.56838 8.316C5.54438 8.316 6.37638 8.036 7.06438 7.476V8.4C6.37638 8.896 5.53238 9.144 4.53238 9.144ZM11.1096 3.96C11.6936 3.36 12.4456 3.06 13.3656 3.06C14.2856 3.06 15.0376 3.36 15.6216 3.96C16.2056 4.544 16.4976 5.26 16.4976 6.108C16.4976 6.956 16.2056 7.672 15.6216 8.256C15.0296 8.848 14.2776 9.144 13.3656 9.144C12.4536 9.144 11.7016 8.848 11.1096 8.256C10.5256 7.672 10.2336 6.956 10.2336 6.108C10.2336 5.26 10.5256 4.544 11.1096 3.96ZM15.6096 6.108C15.6096 5.468 15.3976 4.928 14.9736 4.488C14.5496 4.056 14.0136 3.84 13.3656 3.84C12.7176 3.84 12.1816 4.056 11.7576 4.488C11.3336 4.928 11.1216 5.468 11.1216 6.108C11.1216 6.74 11.3336 7.276 11.7576 7.716C12.1816 8.148 12.7176 8.364 13.3656 8.364C14.0136 8.364 14.5496 8.148 14.9736 7.716C15.3976 7.276 15.6096 6.74 15.6096 6.108ZM20.3387 9.144C19.3467 9.144 18.5747 8.8 18.0227 8.112C17.4707 7.424 17.1947 6.488 17.1947 5.304C17.1947 3.784 17.5827 2.668 18.3587 1.956C18.6227 1.692 19.0827 1.428 19.7387 1.164C20.0267 1.06 20.3147 0.972 20.6027 0.9C20.8987 0.819999 21.2147 0.743999 21.5507 0.672C21.6547 0.648 21.8307 0.612 22.0787 0.564C22.3347 0.516 22.5147 0.483999 22.6187 0.468V1.272C21.7947 1.432 21.1587 1.564 20.7107 1.668C19.8227 1.876 19.1627 2.208 18.7307 2.664C18.2827 3.136 18.0427 3.852 18.0107 4.812C18.2507 4.396 18.5947 4.068 19.0427 3.828C19.4987 3.588 20.0107 3.468 20.5787 3.468C21.3387 3.468 21.9747 3.724 22.4867 4.236C22.9987 4.74 23.2547 5.388 23.2547 6.18C23.2547 7.052 22.9747 7.764 22.4147 8.316C21.8547 8.868 21.1627 9.144 20.3387 9.144ZM20.3387 8.364C20.9067 8.364 21.3867 8.168 21.7787 7.776C22.1787 7.376 22.3787 6.864 22.3787 6.24C22.3787 5.64 22.1867 5.16 21.8027 4.8C21.4267 4.432 20.9547 4.248 20.3867 4.248C19.8667 4.248 19.3987 4.404 18.9827 4.716C18.5667 5.012 18.2667 5.372 18.0827 5.796C18.1227 6.612 18.3347 7.244 18.7187 7.692C19.1107 8.14 19.6507 8.364 20.3387 8.364ZM24.7941 9H23.8101L25.5381 6.684C25.0661 6.604 24.7021 6.416 24.4461 6.12C24.1981 5.816 24.0741 5.432 24.0741 4.968C24.0741 4.432 24.2541 4.004 24.6141 3.684C24.9821 3.364 25.4941 3.204 26.1501 3.204H29.1381V9H28.2741V6.84H26.4141L24.7941 9ZM26.2821 6.084H28.2741V3.96H26.2821C25.8581 3.96 25.5301 4.052 25.2981 4.236C25.0741 4.42 24.9621 4.684 24.9621 5.028C24.9621 5.372 25.0741 5.636 25.2981 5.82C25.5301 5.996 25.8581 6.084 26.2821 6.084ZM32.4282 9.144C31.5882 9.144 30.8762 9.012 30.2922 8.748V7.908C30.9402 8.212 31.6162 8.364 32.3202 8.364C32.9122 8.364 33.3762 8.272 33.7122 8.088C34.0562 7.896 34.2282 7.632 34.2282 7.296C34.2282 6.992 34.0882 6.756 33.8082 6.588C33.5282 6.42 33.1442 6.336 32.6562 6.336H31.6482V5.58H32.6562C33.1042 5.58 33.4402 5.504 33.6642 5.352C33.8962 5.2 34.0122 4.996 34.0122 4.74C34.0122 4.14 33.4682 3.84 32.3802 3.84C31.7322 3.84 31.0962 3.972 30.4722 4.236V3.432C31.0242 3.184 31.7162 3.06 32.5482 3.06C33.2122 3.06 33.7682 3.2 34.2162 3.48C34.6642 3.76 34.8882 4.128 34.8882 4.584C34.8642 4.96 34.7722 5.244 34.6122 5.436C34.4522 5.62 34.2322 5.772 33.9522 5.892C34.7362 6.148 35.1282 6.636 35.1282 7.356C35.1282 7.892 34.8802 8.324 34.3842 8.652C33.8962 8.98 33.2442 9.144 32.4282 9.144ZM38.2291 8.364C38.6291 8.364 39.0091 8.272 39.3691 8.088C39.7291 7.904 40.0211 7.672 40.2451 7.392V6.588C39.6531 6.204 39.0251 6.012 38.3611 6.012C37.8331 6.012 37.4131 6.116 37.1011 6.324C36.7971 6.532 36.6451 6.816 36.6451 7.176C36.6451 7.552 36.7931 7.844 37.0891 8.052C37.3851 8.26 37.7651 8.364 38.2291 8.364ZM37.9891 9.144C37.3731 9.144 36.8491 8.976 36.4171 8.64C35.9931 8.288 35.7811 7.816 35.7811 7.224C35.7811 6.64 36.0051 6.172 36.4531 5.82C36.9011 5.476 37.4691 5.304 38.1571 5.304C38.9091 5.304 39.6051 5.492 40.2451 5.868V5.292C40.2451 4.324 39.6091 3.84 38.3371 3.84C37.6571 3.84 37.0251 4.036 36.4411 4.428V3.588C37.0091 3.236 37.7011 3.06 38.5171 3.06C39.3091 3.06 39.9371 3.248 40.4011 3.624C40.8731 3.992 41.1091 4.52 41.1091 5.208V7.596C41.1091 7.82 41.1571 7.996 41.2531 8.124C41.3571 8.252 41.4931 8.316 41.6611 8.316C41.7891 8.316 41.9011 8.292 41.9971 8.244V8.916C41.8691 9.004 41.6771 9.048 41.4211 9.048C41.1331 9.048 40.8891 8.972 40.6891 8.82C40.4971 8.66 40.3771 8.428 40.3291 8.124C39.7451 8.804 38.9651 9.144 37.9891 9.144ZM44.9135 9H44.0495V3.96H41.9495V3.204H47.0135V3.96H44.9135V9ZM50.3608 9.144C49.4568 9.144 48.6968 8.86 48.0808 8.292C47.4728 7.732 47.1688 7.004 47.1688 6.108C47.1688 5.244 47.4408 4.52 47.9848 3.936C48.5368 3.352 49.2448 3.06 50.1088 3.06C50.5728 3.06 50.9848 3.156 51.3448 3.348C51.7048 3.532 51.9888 3.776 52.1968 4.08C52.4048 4.384 52.5608 4.708 52.6648 5.052C52.7688 5.388 52.8208 5.728 52.8208 6.072V6.312H48.0568C48.1048 6.936 48.3528 7.436 48.8008 7.812C49.2568 8.18 49.8328 8.364 50.5288 8.364C51.2008 8.364 51.8208 8.184 52.3888 7.824V8.592C51.9168 8.96 51.2408 9.144 50.3608 9.144ZM48.0688 5.604H51.9448C51.9208 5.156 51.7528 4.752 51.4408 4.392C51.1448 4.024 50.6888 3.84 50.0728 3.84C49.4968 3.84 49.0248 4.016 48.6568 4.368C48.2968 4.728 48.1008 5.14 48.0688 5.604ZM52.9942 9V8.208C53.0342 8.216 53.1102 8.22 53.2222 8.22C53.7262 8.22 54.0702 7.9 54.2542 7.26C54.4062 6.748 54.5022 6.012 54.5422 5.052L54.5902 3.204H58.9222V9H58.0582V3.96H55.4182L55.3822 5.076C55.3662 5.508 55.3502 5.82 55.3342 6.012C55.2622 6.796 55.1462 7.372 54.9862 7.74C54.8422 8.124 54.6222 8.44 54.3262 8.688C54.0302 8.928 53.6702 9.036 53.2462 9.012C53.1182 9.012 53.0342 9.008 52.9942 9ZM63.2855 9H60.3575V3.204H61.2215V5.148H63.2495C63.9215 5.148 64.4575 5.324 64.8575 5.676C65.2575 6.02 65.4575 6.484 65.4575 7.068C65.4575 7.652 65.2655 8.12 64.8815 8.472C64.4975 8.824 63.9655 9 63.2855 9ZM61.2215 5.904V8.244H63.1295C63.5855 8.244 63.9415 8.144 64.1975 7.944C64.4535 7.736 64.5815 7.448 64.5815 7.08C64.5815 6.704 64.4535 6.416 64.1975 6.216C63.9415 6.008 63.5855 5.904 63.1295 5.904H61.2215ZM67.3363 9H66.4723V3.204H67.3363V5.64H70.9003V3.204H71.7643V9H70.9003V6.42H67.3363V9ZM79.8323 9H78.9683V3.204H79.8323V9ZM75.8363 9H73.2083V3.204H74.0723V5.148H75.8003C76.4723 5.148 77.0083 5.324 77.4083 5.676C77.8083 6.02 78.0083 6.484 78.0083 7.068C78.0083 7.652 77.8163 8.12 77.4323 8.472C77.0483 8.824 76.5163 9 75.8363 9ZM74.0723 5.904V8.244H75.6803C76.1363 8.244 76.4923 8.144 76.7483 7.944C77.0043 7.736 77.1323 7.448 77.1323 7.08C77.1323 6.704 77.0043 6.416 76.7483 6.216C76.4923 6.008 76.1363 5.904 75.6803 5.904H74.0723ZM82.1084 9H81.2684V3.204H82.1084L84.4244 5.892L86.7524 3.204H87.5924V9H86.7524V4.392L84.5924 6.9H84.2564L82.1084 4.392V9ZM0.943439 13.204H1.80744V15.592L4.56744 13.204H5.74344L2.68344 15.82L6.17544 19H4.93944L1.80744 16.144V19H0.943439V13.204ZM8.67444 18.364C9.07444 18.364 9.45444 18.272 9.81444 18.088C10.1744 17.904 10.4664 17.672 10.6904 17.392V16.588C10.0984 16.204 9.47044 16.012 8.80644 16.012C8.27844 16.012 7.85844 16.116 7.54644 16.324C7.24244 16.532 7.09044 16.816 7.09044 17.176C7.09044 17.552 7.23844 17.844 7.53444 18.052C7.83044 18.26 8.21044 18.364 8.67444 18.364ZM8.43444 19.144C7.81844 19.144 7.29444 18.976 6.86244 18.64C6.43844 18.288 6.22644 17.816 6.22644 17.224C6.22644 16.64 6.45044 16.172 6.89844 15.82C7.34644 15.476 7.91444 15.304 8.60244 15.304C9.35444 15.304 10.0504 15.492 10.6904 15.868V15.292C10.6904 14.324 10.0544 13.84 8.78244 13.84C8.10244 13.84 7.47044 14.036 6.88644 14.428V13.588C7.45444 13.236 8.14644 13.06 8.96244 13.06C9.75444 13.06 10.3824 13.248 10.8464 13.624C11.3184 13.992 11.5544 14.52 11.5544 15.208V17.596C11.5544 17.82 11.6024 17.996 11.6984 18.124C11.8024 18.252 11.9384 18.316 12.1064 18.316C12.2344 18.316 12.3464 18.292 12.4424 18.244V18.916C12.3144 19.004 12.1224 19.048 11.8664 19.048C11.5784 19.048 11.3344 18.972 11.1344 18.82C10.9424 18.66 10.8224 18.428 10.7744 18.124C10.1904 18.804 9.41044 19.144 8.43444 19.144ZM15.9074 19.144C15.0194 19.144 14.2834 18.856 13.6994 18.28C13.1154 17.696 12.8234 16.968 12.8234 16.096C12.8234 15.232 13.1194 14.512 13.7114 13.936C14.2954 13.352 15.0314 13.06 15.9194 13.06C16.5914 13.06 17.1754 13.2 17.6714 13.48V14.284C17.1514 13.988 16.6074 13.84 16.0394 13.84C15.3674 13.84 14.8114 14.056 14.3714 14.488C13.9314 14.904 13.7114 15.444 13.7114 16.108C13.7114 16.756 13.9314 17.296 14.3714 17.728C14.8194 18.152 15.3754 18.364 16.0394 18.364C16.6794 18.364 17.2594 18.196 17.7794 17.86V18.652C17.2354 18.98 16.6114 19.144 15.9074 19.144ZM21.4832 19.144C20.5952 19.144 19.8592 18.856 19.2752 18.28C18.6912 17.696 18.3992 16.968 18.3992 16.096C18.3992 15.232 18.6952 14.512 19.2872 13.936C19.8712 13.352 20.6072 13.06 21.4952 13.06C22.1672 13.06 22.7512 13.2 23.2472 13.48V14.284C22.7272 13.988 22.1832 13.84 21.6152 13.84C20.9432 13.84 20.3872 14.056 19.9472 14.488C19.5072 14.904 19.2872 15.444 19.2872 16.108C19.2872 16.756 19.5072 17.296 19.9472 17.728C20.3952 18.152 20.9512 18.364 21.6152 18.364C22.2552 18.364 22.8352 18.196 23.3552 17.86V18.652C22.8112 18.98 22.1872 19.144 21.4832 19.144ZM24.851 13.96C25.435 13.36 26.187 13.06 27.107 13.06C28.027 13.06 28.779 13.36 29.363 13.96C29.947 14.544 30.239 15.26 30.239 16.108C30.239 16.956 29.947 17.672 29.363 18.256C28.771 18.848 28.019 19.144 27.107 19.144C26.195 19.144 25.443 18.848 24.851 18.256C24.267 17.672 23.975 16.956 23.975 16.108C23.975 15.26 24.267 14.544 24.851 13.96ZM29.351 16.108C29.351 15.468 29.139 14.928 28.715 14.488C28.291 14.056 27.755 13.84 27.107 13.84C26.459 13.84 25.923 14.056 25.499 14.488C25.075 14.928 24.863 15.468 24.863 16.108C24.863 16.74 25.075 17.276 25.499 17.716C25.923 18.148 26.459 18.364 27.107 18.364C27.755 18.364 28.291 18.148 28.715 17.716C29.139 17.276 29.351 16.74 29.351 16.108ZM34.5001 19H31.2481V13.204H34.2961C34.8481 13.204 35.2761 13.34 35.5801 13.612C35.8921 13.876 36.0481 14.232 36.0481 14.68C36.0481 15.304 35.8081 15.728 35.3281 15.952C36.0641 16.168 36.4321 16.664 36.4321 17.44C36.4321 17.928 36.2641 18.312 35.9281 18.592C35.5921 18.864 35.1161 19 34.5001 19ZM32.1121 16.384V18.244H34.3201C34.7121 18.244 35.0161 18.164 35.2321 18.004C35.4481 17.844 35.5561 17.616 35.5561 17.32C35.5561 17.024 35.4481 16.796 35.2321 16.636C35.0161 16.468 34.7121 16.384 34.3201 16.384H32.1121ZM32.1121 13.96V15.664H34.0561C34.4161 15.664 34.6961 15.592 34.8961 15.448C35.0961 15.296 35.1961 15.084 35.1961 14.812C35.1961 14.244 34.8161 13.96 34.0561 13.96H32.1121ZM44.1979 19H43.3339V13.204H44.1979V19ZM40.2019 19H37.5739V13.204H38.4379V15.148H40.1659C40.8379 15.148 41.3739 15.324 41.7739 15.676C42.1739 16.02 42.3739 16.484 42.3739 17.068C42.3739 17.652 42.1819 18.12 41.7979 18.472C41.4139 18.824 40.8819 19 40.2019 19ZM38.4379 15.904V18.244H40.0459C40.5019 18.244 40.8579 18.144 41.1139 17.944C41.3699 17.736 41.4979 17.448 41.4979 17.08C41.4979 16.704 41.3699 16.416 41.1139 16.216C40.8579 16.008 40.5019 15.904 40.0459 15.904H38.4379ZM46.4741 19H45.6341V13.204H46.4741L48.7901 15.892L51.1181 13.204H51.9581V19H51.1181V14.392L48.9581 16.9H48.6221L46.4741 14.392V19ZM60.6813 19H59.8173V16.684C59.2573 16.924 58.6613 17.044 58.0293 17.044C57.2213 17.044 56.6253 16.86 56.2413 16.492C55.8653 16.116 55.6773 15.504 55.6773 14.656V13.204H56.5413V14.584C56.5413 15.208 56.6653 15.644 56.9133 15.892C57.1693 16.14 57.5973 16.264 58.1973 16.264C58.7813 16.264 59.3213 16.136 59.8173 15.88V13.204H60.6813V19ZM64.899 19.144C63.995 19.144 63.235 18.86 62.619 18.292C62.011 17.732 61.707 17.004 61.707 16.108C61.707 15.244 61.979 14.52 62.523 13.936C63.075 13.352 63.783 13.06 64.647 13.06C65.111 13.06 65.523 13.156 65.883 13.348C66.243 13.532 66.527 13.776 66.735 14.08C66.943 14.384 67.099 14.708 67.203 15.052C67.307 15.388 67.359 15.728 67.359 16.072V16.312H62.595C62.643 16.936 62.891 17.436 63.339 17.812C63.795 18.18 64.371 18.364 65.067 18.364C65.739 18.364 66.359 18.184 66.927 17.824V18.592C66.455 18.96 65.779 19.144 64.899 19.144ZM62.607 15.604H66.483C66.459 15.156 66.291 14.752 65.979 14.392C65.683 14.024 65.227 13.84 64.611 13.84C64.035 13.84 63.563 14.016 63.195 14.368C62.835 14.728 62.639 15.14 62.607 15.604ZM68.3825 13.204H69.2465V15.592L72.0065 13.204H73.1825L70.1225 15.82L73.6145 19H72.3785L69.2465 16.144V19H68.3825V13.204ZM74.3323 13.96C74.9163 13.36 75.6683 13.06 76.5883 13.06C77.5083 13.06 78.2603 13.36 78.8443 13.96C79.4283 14.544 79.7203 15.26 79.7203 16.108C79.7203 16.956 79.4283 17.672 78.8443 18.256C78.2523 18.848 77.5003 19.144 76.5883 19.144C75.6763 19.144 74.9243 18.848 74.3323 18.256C73.7483 17.672 73.4563 16.956 73.4563 16.108C73.4563 15.26 73.7483 14.544 74.3323 13.96ZM78.8323 16.108C78.8323 15.468 78.6203 14.928 78.1963 14.488C77.7723 14.056 77.2363 13.84 76.5883 13.84C75.9403 13.84 75.4043 14.056 74.9803 14.488C74.5563 14.928 74.3443 15.468 74.3443 16.108C74.3443 16.74 74.5563 17.276 74.9803 17.716C75.4043 18.148 75.9403 18.364 76.5883 18.364C77.2363 18.364 77.7723 18.148 78.1963 17.716C78.6203 17.276 78.8323 16.74 78.8323 16.108ZM81.5694 19H80.7294V13.204H81.5694L83.8854 15.892L86.2134 13.204H87.0534V19H86.2134V14.392L84.0534 16.9H83.7174L81.5694 14.392V19Z" fill="#00171F"/>
</svg>
