<svg width="64" height="10" viewBox="0 0 64 10" fill="none" xmlns="http://www.w3.org/2000/svg">
<path d="M8.81017 1.92554C9.0438 2.22992 9.24159 2.5606 9.39952 2.91095L4.91946 6.23888L3.04712 5.05615V3.63328L4.91946 4.816L8.81017 1.92554Z" fill="#21A038"/>
<path d="M1.13623 4.95584C1.13623 4.89199 1.13778 4.82856 1.14087 4.7655L0.00617972 4.70947C0.0023176 4.7912 1.37122e-06 4.87371 1.37122e-06 4.95699C-0.000481408 5.60765 0.126523 6.25199 0.373733 6.85305C0.62094 7.45414 0.983485 8.00011 1.44057 8.45965L2.24543 7.64899C1.89359 7.29587 1.61446 6.87614 1.42411 6.41396C1.23376 5.95178 1.13592 5.45623 1.13623 4.95584Z" fill="url(#paint0_linear_194_3337)"/>
<path d="M4.91828 1.1447C4.98161 1.1447 5.04454 1.14703 5.10711 1.15014L5.16389 0.00632949C5.08255 0.00243764 5.00066 0.000491957 4.91828 0.000491957C4.27228 -0.000301885 3.63252 0.127496 3.03569 0.376547C2.43886 0.625598 1.89673 0.990998 1.44043 1.45176L2.24529 2.26283C2.59574 1.90815 3.0123 1.62678 3.47103 1.43489C3.92975 1.243 4.42158 1.14438 4.91828 1.1447Z" fill="url(#paint1_linear_194_3337)"/>
<path d="M4.91837 8.76714C4.85504 8.76714 4.79207 8.76714 4.72914 8.76208L4.67236 9.90551C4.75398 9.90966 4.83599 9.91175 4.91837 9.91175C5.5641 9.91241 6.20355 9.78454 6.80006 9.53541C7.39657 9.28629 7.93834 8.92084 8.3943 8.46008L7.59097 7.64941C7.24047 8.0039 6.82395 8.28511 6.36531 8.47693C5.90668 8.66875 5.41495 8.76738 4.91837 8.76714Z" fill="url(#paint2_linear_194_3337)"/>
<path d="M7.05045 1.80972L8.0067 1.09945C7.13267 0.386258 6.04166 -0.00197976 4.91699 7.59201e-06V1.1446C5.67856 1.14365 6.42246 1.37557 7.05045 1.80972Z" fill="url(#paint3_linear_194_3337)"/>
<path d="M9.83661 4.95599C9.83722 4.65823 9.81137 4.36099 9.75935 4.06787L8.70076 4.85402C8.70076 4.8879 8.70076 4.92175 8.70076 4.95599C8.70104 5.48851 8.59025 6.01514 8.37564 6.50175C8.161 6.98836 7.84728 7.42408 7.45483 7.78069L8.21838 8.63108C8.72859 8.16693 9.1363 7.59993 9.41506 6.96684C9.69386 6.33372 9.83746 5.64863 9.83661 4.95599Z" fill="#21A038"/>
<path d="M4.91848 8.76723C4.39 8.76742 3.86736 8.65575 3.3844 8.43948C2.90147 8.2232 2.46899 7.90711 2.11497 7.51172L1.27148 8.28075C1.73203 8.79496 2.29468 9.20587 2.92296 9.48687C3.55123 9.76784 4.23109 9.91263 4.91848 9.91181V8.76723Z" fill="url(#paint4_linear_194_3337)"/>
<path d="M2.38216 2.13113L1.619 1.28076C1.10865 1.74482 0.700794 2.31179 0.421882 2.9449C0.142974 3.57801 -0.000760402 4.26313 3.02525e-06 4.95583H1.13624C1.136 4.42334 1.24679 3.89671 1.46142 3.4101C1.67605 2.92351 1.98974 2.48777 2.38216 2.13113Z" fill="url(#paint5_linear_194_3337)"/>
<path d="M28.3823 2.83418L29.7896 1.80127H25.0798V8.00817H29.7896V6.97526H26.4237V5.38536H29.2949V4.35245H26.4237V2.83418H28.3823Z" fill="#21A038"/>
<path d="M21.9108 4.21915H20.2757V2.83366H22.8853L24.2917 1.79761H18.9326V8.00452H21.7379C23.3106 8.00452 24.2132 7.29434 24.2132 6.05579C24.2132 4.87091 23.3957 4.21915 21.9108 4.21915ZM21.6774 6.97127H20.2757V5.25143H21.6774C22.528 5.25143 22.9269 5.53964 22.9269 6.11137C22.9269 6.68306 22.5025 6.97127 21.6774 6.97127Z" fill="#21A038"/>
<path d="M33.2514 1.80029H30.6877V8.00718H32.0314V6.24887H33.2514C34.8871 6.24887 35.8989 5.39139 35.8989 4.02127C35.8989 2.65119 34.8871 1.80029 33.2514 1.80029ZM33.2231 5.21518H32.0314V2.83399H33.2231C34.0834 2.83399 34.5582 3.25709 34.5582 4.02506C34.5582 4.79303 34.0834 5.21518 33.2231 5.21518Z" fill="#21A038"/>
<path d="M16.9161 6.54239C16.569 6.72966 16.1801 6.82663 15.7854 6.82432C14.604 6.82432 13.747 5.98405 13.747 4.82699C13.747 3.6699 14.604 2.82781 15.7854 2.82781C16.2114 2.8206 16.6286 2.94931 16.976 3.19514L17.916 2.50548L17.8524 2.46048C17.3041 1.9802 16.5715 1.72583 15.7329 1.72583C14.8233 1.72583 13.9986 2.03071 13.4097 2.58537C13.112 2.87096 12.8765 3.21463 12.718 3.59493C12.5594 3.97523 12.4812 4.38399 12.4882 4.79575C12.4819 5.21169 12.5598 5.62463 12.7172 6.00993C12.8745 6.39523 13.1082 6.74496 13.4042 7.03829C13.9958 7.61499 14.8187 7.93272 15.7218 7.93272C16.6655 7.93272 17.4903 7.60487 18.0487 7.00799L17.2073 6.38354L16.9161 6.54239Z" fill="#21A038"/>
<path d="M41.2272 4.21915H39.5928V2.83366H43.1051V1.79761H38.2488V8.00452H41.0504C42.623 8.00452 43.5257 7.29434 43.5257 6.05579C43.5294 4.87091 42.712 4.21915 41.2272 4.21915ZM40.9938 6.97127H39.5928V5.25143H40.9938C41.8443 5.25143 42.243 5.53964 42.243 6.11137C42.243 6.68306 41.8224 6.97127 40.9938 6.97127Z" fill="#21A038"/>
<path d="M58.8027 7.99573H57.4404V1.78882H58.8027V4.39576H59.5442L61.5465 1.78882H63.0904L60.7154 4.74152L63.4732 7.99573H61.6656L59.6387 5.55461H58.8027V7.99573Z" fill="#21A038"/>
<path d="M48.4752 6.81604H45.5933L45.1048 8.02134H43.655L46.358 1.81445H47.8074L50.4665 8.02134H48.9637L48.4752 6.81604ZM48.0238 5.6914L47.0428 3.28077L46.0562 5.6914H48.0238Z" fill="#21A038"/>
<path d="M52.3004 1.81445V4.40634H55.1194V1.81445H56.5241V8.02134H55.1194V5.57562H52.3004V8.02134H50.8958V1.81445H52.3004Z" fill="#21A038"/>
<defs>
<linearGradient id="paint0_linear_194_3337" x1="1.67037" y1="8.31684" x2="0.411973" y2="4.70687" gradientUnits="userSpaceOnUse">
<stop offset="0.14" stop-color="#F1E813"/>
<stop offset="0.3" stop-color="#E6E418"/>
<stop offset="0.58" stop-color="#C9DA26"/>
<stop offset="0.89" stop-color="#A2CC39"/>
</linearGradient>
<linearGradient id="paint1_linear_194_3337" x1="1.76485" y1="1.65414" x2="4.96847" y2="0.442612" gradientUnits="userSpaceOnUse">
<stop offset="0.06" stop-color="#0FA7DF"/>
<stop offset="0.54" stop-color="#0098F8"/>
<stop offset="0.92" stop-color="#0290EA"/>
</linearGradient>
<linearGradient id="paint2_linear_194_3337" x1="4.59745" y1="9.22093" x2="8.21581" y2="8.40975" gradientUnits="userSpaceOnUse">
<stop offset="0.12" stop-color="#A2CC39"/>
<stop offset="0.28" stop-color="#86C239"/>
<stop offset="0.87" stop-color="#219F38"/>
</linearGradient>
<linearGradient id="paint3_linear_194_3337" x1="4.68065" y1="0.383355" x2="7.77597" y2="1.33126" gradientUnits="userSpaceOnUse">
<stop offset="0.06" stop-color="#0290EA"/>
<stop offset="0.79" stop-color="#0C89CA"/>
</linearGradient>
<linearGradient id="paint4_linear_194_3337" x1="1.55651" y1="8.14142" x2="4.92748" y2="9.39164" gradientUnits="userSpaceOnUse">
<stop offset="0.13" stop-color="#F1E813"/>
<stop offset="0.3" stop-color="#EAE616"/>
<stop offset="0.53" stop-color="#D8DF1F"/>
<stop offset="0.8" stop-color="#BAD52D"/>
<stop offset="0.98" stop-color="#A2CC39"/>
</linearGradient>
<linearGradient id="paint5_linear_194_3337" x1="0.42329" y1="5.09437" x2="1.79203" y2="1.561" gradientUnits="userSpaceOnUse">
<stop offset="0.07" stop-color="#A2CC39"/>
<stop offset="0.26" stop-color="#81C45E"/>
<stop offset="0.92" stop-color="#0FA7DF"/>
</linearGradient>
</defs>
</svg>
