<svg width="64" height="64" viewBox="0 0 64 64" fill="none" xmlns="http://www.w3.org/2000/svg">
<path fill-rule="evenodd" clip-rule="evenodd" d="M13.7333 7H45.5489L53 18.7088V46.9687L42.2772 57H8V28.3331L13.7333 7ZM15.2667 9L10.3042 27.4651H41.0232L43.8361 9H15.2667ZM45.5872 10.7854L50.7108 18.8367L43.3053 25.7646L45.5872 10.7854ZM42.8824 28.899V37.5C42.8824 38.0523 42.4346 38.5 41.8824 38.5C41.3301 38.5 40.8824 38.0523 40.8824 37.5V29.4651H10V55H40.8824V42.0174C40.8824 41.4652 41.3301 41.0174 41.8824 41.0174C42.4346 41.0174 42.8824 41.4652 42.8824 42.0174V53.6951L51 46.101V21.3049L42.8824 28.899Z" fill="black"/>
<path fill-rule="evenodd" clip-rule="evenodd" d="M17 34H32.5V46.5H17V34ZM19 36V42.1199C19.1939 41.7361 19.3813 41.328 19.5541 40.9004C20.1656 39.3868 20.5701 37.6886 20.4769 36H19ZM22.4795 36C22.5708 38.0336 22.0772 39.9944 21.4084 41.6496C20.9745 42.7236 20.4573 43.6928 19.9509 44.5H23.75V36H22.4795ZM25.75 36V44.5H29.5491C29.0427 43.6928 28.5255 42.7236 28.0916 41.6496C27.4228 39.9944 26.9292 38.0336 27.0205 36H25.75ZM29.0231 36C28.9299 37.6886 29.3344 39.3868 29.9459 40.9004C30.1187 41.328 30.3061 41.7361 30.5 42.1199V36H29.0231Z" fill="black"/>
</svg>
