<svg xmlns="http://www.w3.org/2000/svg">
	<symbol id="manager-person" width="25" viewBox="0 0 25 40">
		<path d="M7.93591 25.3693C6.12272 24.1369 4.97673 22.4886 4.52932 20.3928C4.08191 20.33 3.64235 20.3143 3.23418 20.2044C1.52304 19.7413 0.416286 18.6346 0.0866158 16.892C-0.250904 15.0945 0.400588 13.6424 1.8998 12.5906C2.10388 12.4493 2.18238 12.3159 2.19023 12.0569C2.22162 10.903 2.18238 9.72563 2.34721 8.58748C2.79462 5.58905 4.37233 3.27351 6.8841 1.60161C8.15569 0.769585 9.55286 0.220134 11.0678 0.0709978C14.8747 -0.313618 18.085 0.863776 20.5183 3.88575C22.0646 5.80883 22.7397 8.03803 22.7397 10.487C22.7397 11.0365 22.724 11.5859 22.7475 12.1275C22.7554 12.2766 22.8574 12.4729 22.983 12.5514C25.5733 14.3096 25.5733 17.9203 22.9909 19.6628C22.8574 19.7492 22.7554 19.9611 22.7475 20.1259C22.7161 20.6047 22.7161 21.0914 22.7397 21.5702C22.8653 23.8858 20.6989 25.5184 18.4932 24.6393C18.14 24.498 17.9359 24.6079 17.7161 24.8277C17.5277 25.0161 17.5042 25.173 17.724 25.3771C18.3127 25.9344 18.8778 26.5074 19.443 27.0883C21.0913 28.7837 21.264 31.0679 19.8276 32.9438C18.3205 34.9062 16.7899 36.8528 15.2358 38.7759C13.8935 40.4321 11.6957 40.3928 10.3692 38.7131C8.86997 36.8292 7.37861 34.9297 5.89509 33.038C4.40373 31.1307 4.54501 28.7837 6.24831 27.0569C6.78991 26.4996 7.34721 25.958 7.93591 25.3693ZM16.2797 23.9172C14.9296 23.4854 13.6737 22.9438 12.2844 22.936C11.7742 22.936 11.4602 22.5671 11.4759 22.1118C11.4995 21.6723 11.8292 21.3583 12.3158 21.374C12.7946 21.3897 13.2891 21.3897 13.7522 21.5153C14.9296 21.8292 16.0992 22.1982 17.2609 22.5828C17.5591 22.677 17.7004 22.622 17.8653 22.3787C18.4775 21.4603 18.8935 20.4635 18.9171 19.3567C18.9563 17.5749 18.9406 15.7853 18.9485 14.0035C18.9485 13.9407 18.9328 13.8779 18.9328 13.9172C18.1321 13.8073 17.3786 13.7052 16.6251 13.611C16.2091 13.5639 15.8009 13.509 15.3849 13.5011C13.9485 13.4776 12.6062 13.8779 11.3111 14.4431C10.1808 14.9376 9.02696 15.0318 7.83387 14.8041C7.37861 14.7178 6.9312 14.5686 6.46809 14.4666C6.04423 14.3724 5.95004 14.4588 5.95004 14.8748C5.95004 16.1934 5.93434 17.5043 5.95004 18.823C5.97359 20.9423 6.83701 22.6534 8.56385 23.8858C9.96103 24.8905 11.5623 25.0631 13.2263 24.9454C14.3252 24.8748 15.3221 24.5686 16.2797 23.9172ZM8.77578 26.79C8.21848 27.3316 7.68473 27.8104 7.20592 28.3363C6.23261 29.4117 6.16197 30.7853 7.05679 31.9391C8.57955 33.9172 10.1337 35.8795 11.6957 37.834C12.3237 38.6189 13.3519 38.611 13.9799 37.8183C15.5262 35.8716 17.0725 33.925 18.5952 31.9548C19.3488 30.9737 19.5058 29.8591 18.7915 28.8308C18.2185 27.9988 17.4336 27.3159 16.7114 26.5231C16.0599 27.6456 15.4555 28.6738 14.8511 29.7099C14.4979 30.3222 14.0191 30.7774 13.3048 30.9344C12.253 31.1699 11.3582 30.7853 10.7303 29.8277C10.0788 28.8308 9.43512 27.8183 8.77578 26.79ZM3.79933 11.8842C4.49007 11.9234 4.49007 11.9234 4.67845 11.2876C5.18866 9.58434 6.20121 8.25781 7.63764 7.22955C9.30953 6.03646 11.2091 5.73034 13.2106 5.84808C16.5466 6.04431 19.4273 8.28136 20.2593 11.3269C20.4241 11.9391 20.4241 11.9391 21.1227 11.8763C21.1384 11.8449 21.162 11.8057 21.162 11.7743C21.1698 11.319 21.1698 10.8638 21.1698 10.4085C21.1463 7.72406 20.1651 5.47916 18.1557 3.67382C15.275 1.08356 10.6204 0.840228 7.48065 3.12437C4.49792 5.29078 3.50891 8.30491 3.79933 11.8842ZM18.8072 12.1668C18.4461 10.6126 17.6219 9.39596 16.3268 8.50114C14.7962 7.44148 13.0615 7.2217 11.2797 7.48858C8.73654 7.86535 7.01754 9.29392 6.20906 11.7586C6.09917 12.104 6.05208 12.4729 5.98928 12.779C6.53089 12.8967 6.99399 12.9988 7.46495 13.1008C7.87311 13.1872 8.28128 13.2735 8.68944 13.3363C9.62351 13.4776 10.4477 13.1008 11.2876 12.7712C13.085 12.0569 14.9375 11.7664 16.8684 12.0647C17.4885 12.1511 18.1086 12.4336 18.8072 12.1668ZM4.35663 18.7445C4.35663 16.9784 4.35663 15.2437 4.35663 13.509C2.92806 13.352 1.62508 14.5215 1.57798 16.0443C1.53873 17.6691 2.89666 18.8308 4.35663 18.7445ZM20.5654 18.7366C22.1274 18.7837 23.3833 17.5749 23.3519 16.0836C23.3205 14.5686 22.0254 13.3599 20.5654 13.5011C20.5654 15.2358 20.5654 16.9705 20.5654 18.7366ZM15.0552 26.2405C13.4697 26.6566 11.9704 26.6173 10.3927 26.3975C11.0128 27.3551 11.578 28.2657 12.1981 29.1526C12.5042 29.6 13.1086 29.5451 13.4069 29.0663C13.9485 28.1636 14.4665 27.2453 15.0552 26.2405ZM19.286 23.2107C20.0788 23.4697 20.9657 23.0302 21.0835 22.2217C21.1698 21.6173 21.0992 20.9815 21.0992 20.3614C20.4163 20.2751 20.4084 20.2829 20.2514 20.8873C20.2122 21.0365 20.1808 21.1934 20.118 21.3347C19.8511 21.9705 19.5686 22.5906 19.286 23.2107Z" />
		<path d="M15.3924 16.1696C15.8162 16.1774 16.193 16.5856 16.1773 17.033C16.1616 17.4411 15.7927 17.7865 15.3845 17.7865C14.9528 17.7865 14.5917 17.394 14.6074 16.9309C14.6231 16.5071 14.9842 16.1617 15.3924 16.1696Z" />
		<path d="M10.5733 17.0016C10.5733 17.4411 10.2044 17.7943 9.77265 17.7786C9.35664 17.7629 9.00342 17.3783 9.00342 16.9466C9.00342 16.5385 9.36449 16.1774 9.7805 16.1696C10.2044 16.1617 10.5733 16.5463 10.5733 17.0016Z" />
	</symbol>
    <symbol id="calculator" width="32" viewBox="0 0 32 40">
		<path d="M0 19.9555C0 14.8915 0 9.81636 0 4.75237C0 2.49304 1.43573 0.65665 3.59488 0.144686C3.98442 0.0556483 4.38509 0.0111297 4.78575 0.0111297C12.2649 0 19.7329 0 27.2009 0C29.961 0 31.9866 2.0256 31.9866 4.78575C31.9866 14.9249 31.9866 25.064 31.9866 35.2031C31.9866 37.9633 29.9499 39.9889 27.2009 39.9889C19.7329 40 12.2538 40 4.78575 39.9889C2.0256 39.9889 0 37.9521 0 35.2031C0 30.128 0 25.0417 0 19.9555ZM1.33556 19.9889C1.33556 25.0195 1.33556 30.039 1.33556 35.0696C1.33556 37.2732 2.72677 38.6644 4.91931 38.6644C12.3094 38.6644 19.6884 38.6644 27.0785 38.6644C29.271 38.6644 30.6622 37.2732 30.6622 35.0696C30.6622 25.0306 30.6622 14.9917 30.6622 4.9527C30.6622 2.72677 29.2821 1.33556 27.0562 1.33556C19.6884 1.33556 12.3094 1.33556 4.94157 1.33556C2.71564 1.33556 1.33556 2.72677 1.33556 4.9527C1.33556 9.96105 1.33556 14.9805 1.33556 19.9889Z" />
		<path d="M16.0046 2.67139C19.7108 2.67139 23.417 2.67139 27.1232 2.67139C28.5144 2.67139 29.3268 3.48385 29.3268 4.86393C29.3268 6.53338 29.3268 8.1917 29.3268 9.86115C29.3268 11.1633 28.4921 11.998 27.1899 11.998C19.7219 11.998 12.2539 11.998 4.78592 11.998C3.50601 11.998 2.67129 11.1522 2.66016 9.89454C2.66016 8.20283 2.66016 6.51112 2.66016 4.80828C2.67129 3.50611 3.50601 2.67139 4.79705 2.67139C8.53662 2.67139 12.2651 2.67139 16.0046 2.67139ZM15.9601 10.6736C19.6774 10.6736 23.4058 10.6736 27.1232 10.6736C27.7798 10.6736 28.0024 10.451 28.0024 9.79437C28.0024 8.15831 28.0024 6.51112 28.0024 4.87506C28.0024 4.21841 27.7798 3.99582 27.1232 3.99582C19.7108 3.99582 12.2873 3.99582 4.87496 3.99582C4.21831 3.99582 3.99572 4.21841 3.99572 4.87506C3.99572 6.48886 3.99572 8.10266 3.99572 9.70533C3.99572 10.4733 4.18492 10.6625 4.95287 10.6625C8.62565 10.6736 12.2873 10.6736 15.9601 10.6736Z" />
		<path d="M29.3265 30.0054C29.3265 31.7305 29.3265 33.4444 29.3265 35.1695C29.3265 36.5274 28.5029 37.3398 27.1451 37.3398C25.9209 37.3398 24.6966 37.3398 23.4835 37.3398C22.1813 37.3398 21.3354 36.5051 21.3354 35.2141C21.3354 31.7416 21.3354 28.2691 21.3354 24.7967C21.3354 23.5056 22.1813 22.6709 23.4835 22.6709C24.7189 22.6709 25.9542 22.6709 27.1896 22.6709C28.5141 22.6709 29.3377 23.5056 29.3377 24.8412C29.3377 26.5552 29.3265 28.2803 29.3265 30.0054ZM28.0021 30.0387C28.0021 28.3025 28.0021 26.5663 28.0021 24.8301C28.0021 24.2291 27.7684 23.9953 27.1674 23.9953C25.9431 23.9953 24.7189 23.9953 23.5057 23.9953C22.9047 23.9953 22.671 24.2291 22.671 24.8301C22.671 28.2691 22.671 31.7193 22.671 35.1584C22.671 35.7594 22.9047 35.9931 23.5057 35.9931C24.7189 35.9931 25.9209 35.9931 27.134 35.9931C27.7906 35.9931 28.0132 35.7705 28.0132 35.1139C28.0021 33.4333 28.0021 31.7416 28.0021 30.0387Z" />
		<path d="M6.66698 21.3352C6.01033 21.3352 5.36481 21.3463 4.70816 21.3352C3.53955 21.3241 2.68256 20.4782 2.67143 19.3096C2.6603 18.4303 2.6603 17.5622 2.67143 16.683C2.68256 15.5366 3.53955 14.6796 4.67477 14.6685C6.01033 14.6574 7.33476 14.6574 8.67032 14.6685C9.78329 14.6796 10.6403 15.5366 10.6625 16.6496C10.6737 17.54 10.6737 18.4303 10.6625 19.3096C10.6514 20.4559 9.79442 21.3018 8.65919 21.3241C7.99141 21.3463 7.32363 21.3352 6.66698 21.3352ZM6.65585 19.9996C7.27911 19.9996 7.90237 19.9996 8.52563 19.9996C9.07099 19.9996 9.32697 19.7548 9.32697 19.2205C9.3381 18.4192 9.3381 17.6067 9.32697 16.8054C9.32697 16.2378 9.08212 16.0041 8.50338 16.0041C7.27911 16.0041 6.05485 16.0041 4.84172 16.0041C4.24072 16.0041 4.00699 16.2378 3.99586 16.8277C3.99586 17.6067 3.99586 18.3858 3.99586 19.1649C3.99586 19.7882 4.22959 20.0108 4.86398 20.0108C5.46498 19.9996 6.05485 19.9996 6.65585 19.9996Z" />
		<path d="M15.9933 14.669C16.661 14.669 17.3288 14.6579 17.9966 14.669C19.1318 14.6801 19.9888 15.5371 19.9999 16.6835C20.0111 17.5738 20.0111 18.4642 19.9999 19.3435C19.9777 20.4564 19.1318 21.3134 18.0077 21.3245C16.6722 21.3357 15.3477 21.3357 14.0122 21.3245C12.8769 21.3134 12.02 20.4564 12.0088 19.3101C11.9977 18.4197 11.9977 17.5293 12.0088 16.6501C12.02 15.5371 12.8769 14.6801 14.001 14.669C14.6577 14.6579 15.3255 14.669 15.9933 14.669ZM15.9821 20.0001C16.6165 20.0001 17.262 20.0112 17.8964 20.0001C18.4084 19.989 18.6532 19.7441 18.6644 19.2322C18.6755 18.4086 18.6755 17.5961 18.6644 16.7725C18.6644 16.2606 18.4084 16.0046 17.8964 16.0046C16.6276 15.9934 15.37 15.9934 14.1012 16.0046C13.5892 16.0046 13.3444 16.2606 13.3333 16.7725C13.3221 17.5961 13.3221 18.4086 13.3333 19.2322C13.3333 19.7441 13.5892 19.989 14.1012 20.0001C14.7356 20.0112 15.3589 20.0001 15.9821 20.0001Z" />
		<path d="M25.3203 21.3352C24.6637 21.3352 24.0181 21.3463 23.3615 21.3352C22.1929 21.3241 21.3359 20.4671 21.3248 19.3096C21.3136 18.4303 21.3136 17.5622 21.3248 16.683C21.3359 15.5366 22.1929 14.6796 23.3281 14.6685C24.6637 14.6574 25.9881 14.6574 27.3236 14.6685C28.4366 14.6796 29.2936 15.5366 29.3159 16.6496C29.327 17.5511 29.327 18.4526 29.3159 19.3541C29.2936 20.4448 28.4477 21.3018 27.357 21.3241C26.6893 21.3463 26.0103 21.3352 25.3203 21.3352ZM25.2869 19.9996C25.9213 19.9996 26.5668 19.9996 27.2012 19.9996C27.7466 19.9996 27.9914 19.7548 27.9914 19.2094C28.0026 18.4081 28.0026 17.5956 27.9914 16.7943C27.9914 16.2489 27.7466 16.0041 27.2012 16.0041C25.9547 16.0041 24.697 16.0041 23.4505 16.0041C22.9052 16.0041 22.6603 16.2489 22.6603 16.7943C22.6492 17.5956 22.6492 18.4081 22.6603 19.2094C22.6603 19.7548 22.9052 19.9996 23.4505 19.9996C24.0627 20.0108 24.6748 19.9996 25.2869 19.9996Z" />
		<path d="M6.65585 22.671C7.32363 22.671 7.99141 22.6598 8.65919 22.671C9.79442 22.6821 10.6514 23.5391 10.6625 24.6854C10.6737 25.5758 10.6737 26.4662 10.6625 27.3454C10.6403 28.4584 9.79442 29.3153 8.67032 29.3265C7.33476 29.3376 6.01033 29.3376 4.67477 29.3265C3.52842 29.3153 2.68256 28.4584 2.67143 27.312C2.6603 26.4216 2.6603 25.5313 2.67143 24.652C2.68256 23.5391 3.53955 22.6821 4.66364 22.671C5.33142 22.6598 5.98807 22.671 6.65585 22.671ZM6.66698 28.002C7.29024 28.002 7.9135 28.002 8.53676 28.002C9.08212 28.002 9.32697 27.7572 9.32697 27.2118C9.3381 26.4105 9.3381 25.598 9.32697 24.7967C9.32697 24.2514 9.08212 24.0065 8.53676 24.0065C7.29024 24.0065 6.03259 24.0065 4.78607 24.0065C4.24072 24.0065 3.99586 24.2514 3.99586 24.7967C3.98473 25.598 3.98473 26.4105 3.99586 27.2118C3.99586 27.7572 4.24072 28.002 4.78607 28.002C5.42046 28.002 6.04372 28.002 6.66698 28.002Z" />
		<path d="M16.0044 22.671C16.6722 22.671 17.3399 22.6598 18.0077 22.671C19.1318 22.6932 19.9888 23.5391 19.9999 24.652C20.0111 25.5535 20.0111 26.455 19.9999 27.3566C19.9777 28.4695 19.1207 29.3265 18.0077 29.3376C16.6722 29.3488 15.3477 29.3488 14.0122 29.3376C12.8769 29.3265 12.0311 28.4584 12.0088 27.3232C11.9977 26.4439 11.9977 25.5758 12.0088 24.6966C12.02 23.5391 12.8769 22.6932 14.0456 22.671C14.6911 22.6598 15.3477 22.671 16.0044 22.671ZM16.0378 24.0065C15.4034 24.0065 14.7579 24.0065 14.1235 24.0065C13.5781 24.0065 13.3333 24.2514 13.3333 24.7967C13.3221 25.5981 13.3221 26.4105 13.3333 27.2119C13.3333 27.7572 13.5781 28.0021 14.1235 28.0021C15.37 28.0021 16.6276 28.0021 17.8742 28.0021C18.4195 28.0021 18.6644 27.7572 18.6644 27.2119C18.6755 26.4105 18.6755 25.5981 18.6644 24.7967C18.6644 24.2514 18.4195 24.0065 17.8742 24.0065C17.262 23.9954 16.6499 24.0065 16.0378 24.0065Z" />
		<path d="M6.64472 37.3397C5.98807 37.3397 5.34255 37.3508 4.6859 37.3397C3.53955 37.3285 2.68256 36.4715 2.67143 35.3363C2.6603 34.446 2.6603 33.5556 2.67143 32.6763C2.68256 31.5634 3.53955 30.6953 4.65251 30.6841C5.9992 30.673 7.34589 30.673 8.69258 30.6841C9.78329 30.6953 10.6403 31.5522 10.6625 32.6429C10.6737 33.5444 10.6737 34.446 10.6625 35.3475C10.6514 36.4716 9.79442 37.3174 8.68145 37.3397C8.00254 37.3397 7.32363 37.3397 6.64472 37.3397ZM6.7115 31.9974C6.07711 31.9974 5.43159 31.9974 4.7972 31.9974C4.25184 31.9974 4.00699 32.2423 4.00699 32.7876C3.99586 33.589 3.99586 34.4014 4.00699 35.2028C4.00699 35.7481 4.25184 35.993 4.7972 35.993C6.04372 35.993 7.30137 35.993 8.54789 35.993C9.09325 35.993 9.3381 35.7481 9.3381 35.2028C9.34923 34.4014 9.34923 33.589 9.3381 32.7876C9.3381 32.2423 9.09325 31.9974 8.54789 31.9974C7.93576 31.9974 7.32363 31.9974 6.7115 31.9974Z" />
		<path d="M16.0377 30.6729C16.6943 30.6729 17.3398 30.6618 17.9965 30.6729C19.1206 30.6952 19.9776 31.541 19.9887 32.654C19.9998 33.5555 19.9998 34.457 19.9887 35.3585C19.9664 36.4715 19.1095 37.3285 17.9965 37.3396C16.6609 37.3507 15.3365 37.3507 14.0009 37.3396C12.8657 37.3285 12.0199 36.4603 11.9976 35.3251C11.9865 34.4459 11.9865 33.5778 11.9976 32.6985C12.0087 31.541 12.8657 30.6952 14.0343 30.684C14.7132 30.6618 15.3699 30.6729 16.0377 30.6729ZM16.0043 31.9973C15.381 31.9973 14.7578 31.9973 14.1345 31.9973C13.5891 31.9973 13.3443 32.2422 13.3443 32.7876C13.3332 33.5889 13.3443 34.4014 13.3443 35.2027C13.3443 35.748 13.5891 35.9929 14.1345 35.9929C15.381 35.9929 16.6387 35.9929 17.8852 35.9929C18.4305 35.9929 18.6754 35.748 18.6754 35.2027C18.6865 34.4014 18.6865 33.5889 18.6754 32.7876C18.6754 32.2422 18.4305 31.9973 17.8852 31.9973C17.2508 31.9973 16.6275 31.9973 16.0043 31.9973Z" />
		<path d="M27.3234 7.35656C27.3234 7.60142 27.3345 7.8574 27.3234 8.10225C27.2677 9.15957 26.3885 9.9943 25.3312 9.9943C24.2739 9.9943 23.3835 9.15957 23.339 8.10225C23.3167 7.59029 23.3167 7.07832 23.339 6.56636C23.3835 5.50904 24.2739 4.67432 25.3312 4.67432C26.3885 4.67432 27.2789 5.50904 27.3234 6.56636C27.3345 6.82234 27.3234 7.08945 27.3234 7.35656ZM25.999 7.35656C25.999 7.12284 26.0101 6.87799 25.999 6.64427C25.9656 6.25473 25.6762 5.98762 25.32 5.99875C24.975 6.00988 24.6968 6.26586 24.6857 6.64427C24.6634 7.10058 24.6634 7.5569 24.6857 8.01322C24.6968 8.38049 24.975 8.64761 25.32 8.65874C25.6762 8.66987 25.9767 8.40275 25.999 8.01322C26.0101 7.80175 25.999 7.57916 25.999 7.35656Z" />
	</symbol>
    <symbol id="box-pack" width="36" viewBox="0 0 36 40">
		<path d="M35.8423 9.38104C35.8423 9.37059 35.8423 9.36015 35.8423 9.3497C35.8318 9.27657 35.8214 9.20345 35.8005 9.13032C35.8005 9.11987 35.79 9.11987 35.79 9.10943C35.7796 9.07809 35.7691 9.05719 35.7587 9.02586C35.7587 9.02586 35.7587 9.01541 35.7482 9.01541L31.5696 0.52233C31.4129 0.198485 31.0891 0 30.7234 0H5.11883C4.76365 0 4.42936 0.198485 4.27266 0.52233L0.0940193 9.01541C0.0940193 9.01541 0.0940193 9.02586 0.0835727 9.02586C0.0731261 9.05719 0.0626796 9.07809 0.052233 9.10943C0.052233 9.11987 0.0417864 9.11987 0.0417864 9.13032C0.0208932 9.20345 0 9.26613 0 9.3497C0 9.36015 0 9.37059 0 9.38104C0 9.40193 0 9.41238 0 9.43327V39.0598C0 39.5821 0.417864 40 0.940193 40H34.9021C35.4244 40 35.8423 39.5821 35.8423 39.0598V9.43327C35.8423 9.41238 35.8423 9.40193 35.8423 9.38104ZM33.3873 8.49308H18.8665V1.88039H30.1489L33.3873 8.49308ZM5.70384 1.88039H16.9862V8.49308H2.45495L5.70384 1.88039ZM33.9619 38.1196H1.88039V10.3735H33.9619V38.1196Z" />
		<path d="M15.7533 23.4423C15.3877 23.0767 14.7922 23.0767 14.4266 23.4423C14.0609 23.8079 14.0609 24.4034 14.4266 24.769L16.5054 26.8479C16.683 27.0255 16.9233 27.1195 17.1636 27.1195C17.4143 27.1195 17.6546 27.015 17.8322 26.8374L23.2226 21.3843C23.5882 21.0187 23.5882 20.4232 23.2122 20.0576C22.8465 19.692 22.2511 19.692 21.8854 20.068L17.1531 24.8526L15.7533 23.4423Z" />
	</symbol>
    <symbol id="delivery-time" width="46" viewBox="0 0 46 40">
		<path d="M34.3377 21.5152C32.2084 21.5152 30.1377 20.8717 28.336 19.6433C26.6396 18.485 25.3877 16.9992 24.5922 15.2326C23.7966 13.466 23.4924 11.7579 23.6328 10.003C23.82 7.82696 24.4869 6.00187 25.6802 4.43416C26.8969 2.81965 28.2658 1.69651 29.8803 0.982855C31.6235 0.210699 33.3082 -0.105183 35.0046 0.0235099C37.0052 0.175601 38.7952 0.772267 40.3278 1.82521C42.5272 3.33442 43.9897 5.3467 44.6799 7.80356C44.8086 8.25984 44.9022 8.72781 44.9841 9.18408C45.0192 9.39467 45.066 9.60526 45.1128 9.81585V11.6877V11.7345C45.1011 11.7696 45.0894 11.8047 45.0777 11.8515C45.0543 11.9217 45.0426 11.9919 45.0309 12.0504C44.832 13.7234 44.247 15.2794 43.3228 16.6717C41.6966 19.1168 39.228 20.7664 36.3851 21.3163C35.7065 21.445 35.0163 21.5152 34.3377 21.5152ZM41.5562 15.958C41.3339 15.841 41.1467 15.7357 40.9712 15.6187C40.4799 15.3145 40.3278 14.8349 40.5852 14.3786C40.8425 13.934 41.3339 13.8053 41.837 14.051C42.0359 14.1446 42.2231 14.2499 42.4336 14.3669C42.4687 14.3903 42.5155 14.4137 42.5506 14.4371C42.9601 13.583 43.1941 12.6705 43.3111 11.6175C43.2643 11.6175 43.2175 11.6175 43.1707 11.6175C42.9367 11.6175 42.7144 11.6175 42.4804 11.6175C41.8838 11.6058 41.5328 11.2783 41.5211 10.7518C41.5211 10.2253 41.8838 9.89774 42.4687 9.87434C42.691 9.86264 42.9133 9.86264 43.1473 9.87434C43.1941 9.87434 43.2409 9.87434 43.2994 9.87434C43.2292 8.9384 42.9835 8.02585 42.5389 7.04311C42.5038 7.0665 42.4804 7.0782 42.4453 7.1016C42.2465 7.2186 42.071 7.32389 41.8721 7.42918C41.4041 7.68657 40.8308 7.55788 40.5852 7.1484C40.3395 6.73892 40.4916 6.18906 40.9478 5.89657C41.1233 5.77958 41.3105 5.67428 41.4977 5.55729C41.5328 5.53389 41.5796 5.51049 41.6147 5.4871C41.0531 4.70324 40.3746 4.03638 39.5556 3.43971C39.5439 3.46311 39.5322 3.48651 39.5205 3.50991C39.4269 3.6854 39.3333 3.84919 39.2397 4.01298C38.9472 4.50435 38.4208 4.69154 37.9762 4.45755C37.5199 4.21187 37.3912 3.6971 37.672 3.15893C37.7539 2.99514 37.8475 2.83135 37.9411 2.64416L37.9996 2.53887C37.1806 2.14109 36.2798 1.9071 35.2152 1.79011C35.2152 1.83691 35.2152 1.8837 35.2152 1.9305C35.2152 2.17619 35.2152 2.39847 35.2152 2.63246C35.1918 3.15893 34.8642 3.48651 34.3611 3.49821C33.8697 3.50991 33.5188 3.18233 33.472 2.66756C33.4603 2.53887 33.4603 2.41017 33.4603 2.28148C33.4603 2.23468 33.4603 2.17619 33.4603 2.12939C33.4603 2.02409 33.4603 1.9188 33.4603 1.80181C32.4658 1.8954 31.5767 2.12939 30.6641 2.55056C30.6758 2.57396 30.6875 2.59736 30.7109 2.62076C30.8045 2.78455 30.8981 2.94834 30.9917 3.11213C31.2725 3.6152 31.1672 4.17677 30.746 4.43416C30.3365 4.69154 29.7633 4.51605 29.4591 4.03638C29.3538 3.87259 29.2602 3.7088 29.1549 3.54501C29.1432 3.52161 29.1198 3.48651 29.1081 3.45141C28.3126 4.01298 27.6574 4.67984 27.049 5.51049L27.1192 5.54559C27.2713 5.63919 27.4117 5.72108 27.5638 5.81468C27.8914 6.01357 28.102 6.25925 28.1605 6.52834C28.2073 6.72722 28.1722 6.93781 28.0435 7.125C27.751 7.58128 27.2011 7.67487 26.6513 7.35899C26.5109 7.27709 26.3588 7.1952 26.2067 7.1016L26.1482 7.0665C25.727 7.99075 25.493 8.8799 25.3994 9.86264C25.4345 9.86264 25.4813 9.86264 25.5164 9.86264C25.7387 9.86264 25.9376 9.86264 26.1482 9.86264C26.7448 9.88604 27.0841 10.2019 27.0841 10.7401C27.0841 11.1262 26.9203 11.5824 26.1482 11.6058C25.9727 11.6175 25.8089 11.6175 25.6334 11.6175C25.5515 11.6175 25.4813 11.6175 25.3994 11.6175C25.4579 12.495 25.6919 13.3841 26.1248 14.3903C26.1716 14.3669 26.2067 14.3435 26.2535 14.3201C26.4524 14.2148 26.6396 14.1095 26.8267 14.0159C27.3064 13.7819 27.7861 13.9106 28.0435 14.3552C28.3009 14.7998 28.1722 15.2677 27.7042 15.5719C27.5287 15.6889 27.3415 15.7825 27.1426 15.8995C27.1075 15.9229 27.0724 15.9346 27.0373 15.958C27.5989 16.7418 28.2658 17.4204 29.073 18.0171C29.0964 17.982 29.1198 17.9469 29.1315 17.9118C29.2485 17.7129 29.3655 17.5257 29.4825 17.3385C29.7984 16.8471 30.2897 16.7068 30.7226 16.9758C31.1906 17.2566 31.2959 17.748 31.0034 18.2745C30.8981 18.4499 30.8045 18.6254 30.6758 18.836C30.6524 18.8828 30.6173 18.9296 30.5939 18.9881L33.4603 19.772C33.4603 19.7135 33.4603 19.655 33.4603 19.5965C33.4603 19.3508 33.4603 19.1285 33.4603 18.9179C33.4837 18.3564 33.8229 17.9937 34.3377 17.9937C34.3494 17.9937 34.3611 17.9937 34.3728 17.9937C34.8876 18.0054 35.2035 18.3564 35.2152 18.9179C35.2152 19.1285 35.2152 19.3391 35.2152 19.5614C35.2152 19.6082 35.2152 19.655 35.2152 19.6901C36.1745 19.6082 37.0754 19.3742 38.0347 18.9413C38.0113 18.8945 37.9879 18.8594 37.9645 18.8126C37.8475 18.602 37.7422 18.4032 37.6369 18.1926C37.3912 17.7012 37.5316 17.1981 37.9879 16.9524C38.4325 16.7067 38.9005 16.8588 39.1929 17.3268C39.3099 17.514 39.4152 17.7012 39.5322 17.9235C39.5556 17.9703 39.5907 18.0288 39.6258 18.0873L41.6966 16.0282C41.6615 16.0165 41.603 15.9814 41.5562 15.958Z" />
		<path d="M0.000175476 22.7791C0.000175476 21.6559 0.374554 20.72 1.17011 19.9478C2.46873 18.6609 3.55677 17.5846 4.63311 16.4848C5.46376 15.6308 6.42311 15.2447 7.58134 15.2681C8.06101 15.2798 8.52898 15.2798 9.02036 15.2798C9.18415 15.2798 9.35964 15.2798 9.53513 15.2798V14.9405C9.53513 14.5895 9.53513 14.2269 9.53513 13.8759C9.53513 13.092 9.52343 12.2731 9.54683 11.4775C9.58192 9.67582 10.7987 8.2719 12.577 7.96771C12.729 7.94432 12.8928 7.93262 13.08 7.93262C15.923 7.93262 18.7776 7.93262 21.6205 7.93262C21.9715 7.93262 22.2406 8.02621 22.4161 8.2134C22.5682 8.37719 22.6384 8.61118 22.615 8.89196C22.5799 9.41843 22.2289 9.67582 21.6088 9.67582C19.7837 9.67582 17.9469 9.67582 16.1218 9.67582H13.3725C12.6822 9.67582 12.1558 9.85131 11.8048 10.2023C11.4538 10.5533 11.2783 11.0797 11.2783 11.77C11.2783 12.9516 11.2783 14.1333 11.29 15.3149C11.29 16.5433 11.3017 17.7718 11.3017 18.9885C11.3017 20.9774 11.3017 22.978 11.3017 24.9668V27.8566H38.9472V26.0432C38.9472 24.803 38.9472 23.5278 38.9472 22.276C38.9472 21.4921 39.4035 21.3166 39.7896 21.3166C40.0587 21.3049 40.281 21.3868 40.433 21.5389C40.6085 21.7027 40.6904 21.9601 40.6904 22.276V23.7384C40.6904 27.061 40.7021 30.5006 40.6787 33.8817C40.667 35.2155 39.8013 36.2684 38.5261 36.5141C38.0698 36.6077 35.9639 36.5609 35.8937 36.5609C35.3204 38.5732 33.4836 39.9888 31.3661 40.0005C31.3544 40.0005 31.3427 40.0005 31.331 40.0005C29.2017 40.0005 27.3532 38.5966 26.7916 36.5726C25.2941 36.5726 22.9309 36.5726 21.0707 36.5726H17.7364C15.9113 36.5726 13.6299 36.5726 12.2026 36.5726C11.641 38.5849 9.80421 39.9888 7.67493 40.0005C7.66323 40.0005 7.65154 40.0005 7.65154 40.0005C5.38187 40.0005 3.40468 38.3509 3.0069 36.128H2.56233C2.28154 36.128 1.93056 36.128 1.70828 36.128H1.67318C1.45089 36.1163 1.2403 36.0227 1.05312 35.8823C0.351154 35.309 0.000175476 34.5486 0.000175476 33.6009C0.000175476 30.6059 0.0118752 26.6866 0.000175476 22.7791ZM37.9879 34.8177C38.5612 34.7943 38.9121 34.4784 38.9238 33.9753C38.9472 32.9458 38.9472 31.9279 38.9355 30.8633C38.9355 30.4889 38.9355 30.1028 38.9355 29.7285H10.787C9.74572 29.7285 9.50003 29.4711 9.50003 28.4181V17.0464H8.95016C8.41199 17.0464 7.88552 17.0464 7.37075 17.0464C6.82088 17.0464 6.35291 17.2336 5.96683 17.6314L5.37017 18.228C4.37572 19.2225 3.36958 20.2286 2.37514 21.2231C1.96566 21.6325 1.76677 22.1239 1.76677 22.7089C1.76677 26.3942 1.76677 30.0677 1.76677 33.6126C1.76677 33.9402 1.84867 34.1859 2.02416 34.3965C2.32834 34.3965 2.67932 34.3965 3.0303 34.3965C3.45148 32.1853 5.38187 30.5825 7.65154 30.5708C10.0967 30.5591 12.1324 32.4193 12.3664 34.8411C16.1335 34.8411 22.7905 34.8411 26.6512 34.8411C26.8852 32.4193 28.8624 30.6059 31.3193 30.5708C31.3427 30.5708 31.3544 30.5708 31.3778 30.5708C33.7644 30.5708 35.8235 32.4661 36.0575 34.8411C36.2213 34.8411 36.4436 34.8411 36.6893 34.8411C36.8648 34.8411 37.0636 34.8411 37.2391 34.8411C37.5784 34.8177 37.8943 34.8177 37.9879 34.8177ZM31.3427 38.2456C31.3544 38.2456 31.3544 38.2456 31.3427 38.2456C32.9923 38.2456 34.326 36.9119 34.326 35.2739C34.326 33.636 32.9923 32.3023 31.3544 32.2906H31.3427C30.5471 32.2906 29.8101 32.5948 29.2485 33.1564C28.6869 33.7179 28.371 34.4784 28.371 35.2973C28.3827 36.947 29.6931 38.2456 31.3427 38.2456ZM7.66323 38.2456C9.32454 38.2456 10.6232 36.947 10.6349 35.2856C10.6349 34.4784 10.319 33.7179 9.75741 33.1564C9.19585 32.6065 8.47049 32.3023 7.68663 32.3023C7.67493 32.3023 7.66323 32.3023 7.65154 32.3023C6.01363 32.3257 4.69161 33.6594 4.69161 35.2973C4.69161 36.947 6.00193 38.2456 7.66323 38.2456Z" />
		<path d="M36.5491 14.8934C36.4204 14.9636 36.28 14.9987 36.1396 14.9987C35.8121 14.9987 35.4845 14.7998 35.2856 14.4605L35.2739 14.4371C35.075 14.0978 34.8644 13.7469 34.7006 13.3725C34.5602 13.0683 34.4081 12.9513 34.0689 12.9162C33.1797 12.8226 32.5479 12.2727 32.2672 11.3719C31.9864 10.4359 32.2321 9.5936 32.9457 9.13733C33.4839 8.78635 33.5541 8.40027 33.4956 7.7685C33.4839 7.63981 33.4839 7.51112 33.4956 7.39413C33.4956 7.33563 33.4956 7.28883 33.4956 7.23034C33.4956 7.08994 33.4956 6.94955 33.4956 6.80916C33.4956 6.50498 33.4956 6.1891 33.4956 5.87322C33.5073 5.54563 33.5892 5.29995 33.7647 5.13616C33.9285 4.98407 34.139 4.91387 34.4081 4.92557C34.7825 4.93727 35.2388 5.11276 35.2505 5.88491V6.03701C35.2505 6.83256 35.2622 7.66321 35.2505 8.47046C35.2505 8.66935 35.2973 8.75125 35.4845 8.85654C36.0226 9.16072 36.4087 9.6521 36.5608 10.2254C36.6895 10.6933 36.631 11.173 36.397 11.5708C36.0577 12.1557 36.2332 12.5067 36.5257 12.9864C36.6427 13.1736 36.748 13.3608 36.8416 13.548L36.8767 13.6065C37.1224 14.1329 37.0054 14.6477 36.5491 14.8934ZM34.8059 10.7518C34.8059 10.5061 34.6187 10.3073 34.3847 10.2956H34.373C34.2677 10.2956 34.1507 10.3424 34.0689 10.4243C33.9753 10.5061 33.9285 10.6348 33.9168 10.7518C33.9168 10.8688 33.9636 10.9858 34.0455 11.0794C34.1273 11.1613 34.2326 11.2081 34.3262 11.2081C34.4549 11.2081 34.5836 11.1613 34.6655 11.0677C34.7591 10.9858 34.8059 10.8688 34.8059 10.7518Z" />
	</symbol>
    	<symbol id="doc-garant" width="42" viewBox="0 0 42 40">
		<path d="M41.3742 5.0463C41.1495 5.42651 40.8212 5.5302 40.3891 5.5302C39.0411 5.51292 37.6931 5.52156 36.345 5.52156C36.1981 5.52156 36.0512 5.52156 35.8611 5.52156C35.8611 5.72895 35.8611 5.89313 35.8611 6.06596C35.8611 14.7676 35.8611 23.4693 35.8611 32.1796C35.8611 33.8301 35.0489 35.1349 33.6231 35.6274C33.0527 35.8262 32.4219 35.8435 31.7566 35.9558C31.7566 36.0336 31.7393 36.1718 31.7393 36.3101C31.7393 37.252 31.7393 38.1939 31.7393 39.1357C31.7393 39.4641 31.6788 39.7665 31.3504 39.9221C31.0393 40.0776 30.7542 39.9739 30.4863 39.7665C29.7605 39.2135 29.026 38.6691 28.2828 38.1074C27.557 38.6518 26.8397 39.1789 26.1398 39.7147C25.8546 39.9307 25.5695 40.0949 25.2152 39.9221C24.8523 39.7493 24.8263 39.4123 24.8263 39.058C24.835 38.0124 24.8263 36.9582 24.8263 35.8521C24.619 35.8521 24.4461 35.8521 24.282 35.8521C17.3949 35.8521 10.5079 35.8521 3.62954 35.8521C1.89267 35.8521 0.51872 34.9275 0.147149 33.3548C-0.0343154 32.5684 0.00889046 31.7303 0.00889046 30.9093C0.00889046 30.5378 0.345896 30.339 0.81252 30.339C2.21239 30.339 3.61226 30.339 5.01213 30.339C5.15903 30.339 5.30593 30.339 5.49604 30.339C5.49604 30.1316 5.49604 29.9674 5.49604 29.7946C5.49604 21.093 5.49604 12.3913 5.49604 3.68099C5.49604 2.03053 6.27374 0.777558 7.6909 0.241805C8.13159 0.0776227 8.63278 -0.000147887 9.10805 -0.00878906C18.6565 -0.000147887 28.205 -0.000147887 37.7622 -0.000147887C39.6287 -0.000147887 40.873 1.01087 41.3137 2.8428C41.3223 2.87736 41.3569 2.91193 41.3742 2.94649C41.3742 3.64643 41.3742 4.34636 41.3742 5.0463ZM24.8091 30.3304C24.8609 29.9156 24.835 29.5872 24.593 29.233C24.3943 28.9391 24.3597 28.533 24.2474 28.1787C24.1869 27.9973 24.1437 27.7899 24.0314 27.6603C23.2882 26.8134 23.2796 25.6209 24.0054 24.7827C24.135 24.6272 24.2301 24.3939 24.2474 24.1951C24.3424 23.0632 25.1979 22.2163 26.3386 22.1731C26.4941 22.1645 26.6756 22.0953 26.7879 22.0003C27.6866 21.1794 28.8791 21.1707 29.7777 22.0003C29.8814 22.0953 30.0456 22.1731 30.1925 22.1731C31.4109 22.225 32.2664 23.0718 32.3269 24.2729C32.3355 24.4371 32.4219 24.6272 32.5343 24.7568C33.0182 25.3099 33.2515 25.9579 33.0355 26.6579C32.8972 27.0986 32.517 27.4615 32.3355 27.9022C32.1541 28.3343 32.0849 28.8182 31.964 29.2762C31.9035 29.5095 31.7652 29.7428 31.7652 29.9761C31.7479 31.2031 31.7566 32.4302 31.7566 33.6572C31.7566 34.4522 31.8516 34.5386 32.6466 34.4695C32.7244 34.4609 32.8108 34.4522 32.8886 34.4263C33.8909 34.1843 34.4958 33.3721 34.4958 32.2401C34.4958 28.4639 34.4958 24.6963 34.4958 20.9201C34.4958 15.1824 34.4958 9.44466 34.4958 3.70692C34.4958 2.92921 34.6427 2.21199 35.0661 1.55526C35.0921 1.51206 35.0921 1.46021 35.118 1.3738C34.9711 1.3738 34.8501 1.3738 34.7291 1.3738C26.2176 1.3738 17.6974 1.3738 9.18582 1.3738C7.71682 1.3738 6.89591 2.20335 6.88727 3.68963C6.88727 12.4172 6.88727 21.1448 6.88727 29.881C6.88727 30.0279 6.88727 30.1662 6.88727 30.3304C12.867 30.3304 18.8207 30.3304 24.8091 30.3304ZM24.7918 34.4868C24.7918 33.5363 24.7918 32.6462 24.7918 31.7648C16.9629 31.7648 9.16854 31.7648 1.38284 31.7648C1.14088 33.519 2.24695 34.5214 3.82829 34.5127C10.6289 34.4609 17.4381 34.4954 24.2387 34.4954C24.4116 34.4868 24.5844 34.4868 24.7918 34.4868ZM26.425 23.5643C25.8374 23.5816 25.5436 24.031 25.6818 24.5408C25.8374 25.0852 25.7337 25.2494 25.267 25.5691C25.0683 25.7073 24.8523 25.9839 24.8609 26.1913C24.8696 26.4246 25.0683 26.7097 25.267 26.8566C25.7337 27.185 25.8287 27.3405 25.6732 27.8849C25.5004 28.5071 25.9411 28.9651 26.5632 28.8182C27.194 28.6626 27.2891 28.7058 27.6347 29.2762C27.9372 29.786 28.5766 29.786 28.8877 29.2848C29.2593 28.6886 29.3025 28.6713 29.9851 28.8182C30.5641 28.9478 31.0048 28.5071 30.8665 27.9281C30.7023 27.2714 30.7283 27.2023 31.3332 26.8307C31.8084 26.5283 31.8257 25.8975 31.3504 25.595C30.7283 25.1889 30.7283 25.1889 30.8752 24.4285C30.9789 23.9013 30.5295 23.4606 30.011 23.5816C29.2938 23.7458 29.2679 23.7285 28.8791 23.1236C28.6198 22.7175 28.0322 22.5879 27.7903 22.9767C27.4273 23.5643 27.0558 23.9446 26.425 23.5643ZM26.2435 37.9173C26.7879 37.5112 27.2804 37.1396 27.773 36.7767C28.1618 36.4915 28.4038 36.4915 28.8013 36.7767C29.1729 37.0446 29.5358 37.3297 29.8987 37.5976C30.0283 37.6927 30.1666 37.7877 30.3308 37.9001C30.3308 35.3077 30.3308 32.7931 30.3308 30.1662C30.0975 30.2699 29.8987 30.3045 29.7777 30.4168C28.8618 31.2377 27.6866 31.2463 26.7879 30.4254C26.6583 30.3131 26.4682 30.2699 26.2435 30.1576C26.2435 32.8104 26.2435 35.3336 26.2435 37.9173ZM39.9657 4.12169C40.078 3.12796 39.9138 2.26384 39.0238 1.7108C38.2893 1.25282 37.5116 1.25282 36.7857 1.73673C35.9216 2.2984 35.7747 3.15388 35.8957 4.13033C37.2524 4.12169 38.6004 4.12169 39.9657 4.12169Z" />
		<path d="M15.1831 14.4652C15.1831 14.0158 15.1831 13.5924 15.1831 13.1431C20.4629 13.1431 25.7167 13.1431 30.9964 13.1431C30.9964 13.5838 30.9964 14.0072 30.9964 14.4652C25.7426 14.4652 20.4888 14.4652 15.1831 14.4652Z" />
		<path d="M13.8003 10.3176C13.8003 9.86821 13.8003 9.4448 13.8003 8.98682C18.3888 8.98682 22.9599 8.98682 27.5484 8.98682C27.5484 9.43616 27.5484 9.85957 27.5484 10.3176C22.9599 10.3176 18.3888 10.3176 13.8003 10.3176Z" />
		<path d="M10.3438 21.361C10.3438 20.903 10.3438 20.4796 10.3438 20.0303C14.9322 20.0303 19.5034 20.0303 24.1005 20.0303C24.1005 20.471 24.1005 20.903 24.1005 21.361C19.5207 21.361 14.9495 21.361 10.3438 21.361Z" />
		<path d="M19.3218 17.8957C19.3218 17.4463 19.3218 17.0143 19.3218 16.5649C23.2189 16.5649 27.1075 16.5649 31.0046 16.5649C31.0046 17.0143 31.0046 17.4377 31.0046 17.8957C27.1161 17.8957 23.2362 17.8957 19.3218 17.8957Z" />
		<path d="M10.3438 24.8088C10.3438 24.3508 10.3438 23.9274 10.3438 23.478C14.2409 23.478 18.1294 23.478 22.0266 23.478C22.0266 23.9274 22.0266 24.3508 22.0266 24.8088C18.1467 24.8088 14.2668 24.8088 10.3438 24.8088Z" />
		<path d="M10.3525 17.8958C10.3525 17.4378 10.3525 17.0144 10.3525 16.5737C12.8758 16.5737 15.3731 16.5737 17.8963 16.5737C17.8963 17.0144 17.8963 17.4378 17.8963 17.8958C15.3903 17.8958 12.8844 17.8958 10.3525 17.8958Z" />
		<path d="M21.3438 5.54785C21.3438 5.99719 21.3438 6.42061 21.3438 6.86995C19.5118 6.86995 17.7058 6.86995 15.8652 6.86995C15.8652 6.43789 15.8652 6.00583 15.8652 5.54785C17.6885 5.54785 19.4945 5.54785 21.3438 5.54785Z" />
		<path d="M10.3525 14.4652C10.3525 14.0072 10.3525 13.5751 10.3525 13.1431C11.4932 13.1431 12.6165 13.1431 13.7658 13.1431C13.7658 13.5924 13.7658 14.0158 13.7658 14.4652C12.6252 14.4652 11.5018 14.4652 10.3525 14.4652Z" />
		<path d="M22.7695 5.53857C23.6855 5.53857 24.5669 5.53857 25.4742 5.53857C25.4742 5.97927 25.4742 6.41997 25.4742 6.87796C24.5669 6.87796 23.6769 6.87796 22.7695 6.87796C22.7695 6.42861 22.7695 6.0052 22.7695 5.53857Z" />
	</symbol>
    <symbol id="smile" width="40" viewBox="0 0 40 40">
        <path d="M18.83 40c-.763-.11-1.525-.177-2.274-.313-4.616-.817-8.468-3.008-11.573-6.506C2.152 29.983.518 26.24.11 22.007c-.503-5.226.83-9.99 4.044-14.168 2.968-3.865 6.862-6.37 11.64-7.363C21.77-.776 27.257.449 32.118 4.137c3.907 2.967 6.385 6.9 7.42 11.705.19.844.258 1.714.38 2.586.014.136.055.272.069.408v2.34c-.028.287-.068.559-.096.845-.476 4.3-2.123 8.098-5.023 11.323-3.077 3.416-6.903 5.553-11.437 6.356-.748.136-1.51.204-2.273.313C20.395 40 19.606 40 18.829 40ZM38.27 20.034c.041-10.031-8.169-18.252-18.243-18.292C9.994 1.7 1.77 9.908 1.729 19.979 1.69 30.01 9.885 38.23 19.973 38.271c10.02.04 18.258-8.166 18.298-18.237Z"/><path d="M20 29.52c-3.295-.014-6.1-1.211-8.373-3.62-.395-.409-.409-.926-.055-1.28.355-.354.872-.354 1.28.068.872.912 1.838 1.688 2.995 2.205 3.54 1.552 6.89 1.212 10.021-1.061.504-.368.926-.844 1.389-1.253.3-.258.64-.285.98-.095.34.19.504.504.408.885-.04.19-.163.381-.3.53-1.837 1.974-4.097 3.145-6.78 3.553-.176.027-.353.068-.544.068-.327.014-.68 0-1.021 0ZM13.03 13.882c2.34.04 4.26 1.905 4.342 4.233.014.571-.3.966-.803 1.02-.45.041-.858-.286-.912-.816-.082-.858-.354-1.593-1.062-2.123-.804-.586-1.688-.695-2.587-.314-.912.395-1.443 1.117-1.552 2.124l-.04.313c-.096.53-.464.857-.913.816-.504-.054-.817-.462-.803-1.02.068-1.851 1.334-3.498 3.117-4.002.395-.122.804-.163 1.212-.231ZM26.958 13.896c2.328.028 4.275 1.906 4.343 4.22.013.558-.313.966-.817 1.007-.45.04-.844-.286-.899-.83-.081-.817-.34-1.552-1.007-2.07-.817-.625-1.716-.748-2.641-.353-.926.395-1.457 1.143-1.566 2.164-.027.204-.055.422-.136.599-.15.354-.558.53-.94.449-.435-.109-.68-.436-.68-.912-.028-1.987 1.606-3.879 3.58-4.192.245-.027.504-.04.763-.082Z"/>
    </symbol>
</svg>
