<svg xmlns="http://www.w3.org/2000/svg"><symbol id="shopping-cart" viewBox="0 0 16 16"><path d="M15.9917 6.18766c0-.33254-.192-.51544-.5259-.51544-.4841 0-.9681-.00416-1.4522 0-.096 0-.1628-.02494-.2254-.10392-.5049-.63598-1.0099-1.26365-1.519-1.89548-.6552-.81888-1.3146-1.63361-1.9698-2.45249-.1335-.17043-.30044-.257723-.51745-.19953-.35055.09145-.45488.47803-.21283.78147.99318 1.23872 1.99058 2.47744 2.98378 3.71615.0334.04157.0626.08729.1044.14133H3.3302c.03339-.04572.05425-.07898.07929-.11223.28795-.36164.58008-.71912.86803-1.08076.70944-.88123 1.41471-1.76663 2.12832-2.64786.10433-.13302.17945-.27019.14189-.44062-.04173-.19536-.16275-.32422-.35889-.36579-.20449-.045726-.36307.03741-.49244.19537-1.16015 1.44655-2.32029 2.88895-3.48044 4.33966-.07512.09145-.14606.1247-.26291.12054-.44236-.00831-.88471.00832-1.327072-.00831C.338028 5.65559.125196 5.74289 0 6.01308v2.11579c.125196.27019.338028.36995.630151.34501.137715-.01247.279604-.00416.421489-.00416.0167.06236.03339.11224.04591.15796.57172 1.98692 1.13928 3.96972 1.71101 5.95662.08763.3076.23369.4157.55086.4157h9.27698c.3172 0 .4591-.1081.5509-.4198.5008-1.7376.9974-3.4751 1.4981-5.20846.0877-.30344.1753-.60273.263-.90617h.5174c.3464 0 .5342-.1829.5342-.52376-.0042-.58194-.0042-1.16805-.0083-1.75415ZM12.361 14.0647H3.63067c-.52999-1.8539-1.06416-3.712-1.6025-5.58251H13.9635c-.5342 1.86641-1.0684 3.72031-1.6025 5.58251Zm2.6875-6.53441H.94314v-.91448H15.0485v.91448Z"/><path d="M8.00667 12.9999c.28889-.0039.49333-.1989.49333-.4838V9.99553C8.5 9.69899 8.3 9.5 8.00222 9.5S7.5 9.69899 7.5 9.99163v2.52057c0 .2888.20889.4916.50667.4877Zm-1.9952.0424c.27798-.0787.42208-.3308.34414-.6217-.11529-.4303-.23166-.8646-.34696-1.2949-.11423-.4263-.22846-.8526-.34269-1.27891-.08113-.3028-.32877-.45424-.6164-.37717-.28763.07708-.43066.33319-.35059.63198.22953.8566.46012 1.7172.68965 2.5738.079.2949.33629.448.62285.3669Zm3.99003-.0375c.2801.0708.531-.0755.6089-.3664.1153-.4303.2317-.8645.347-1.2948.1142-.4263.2284-.8527.3427-1.279.0811-.30278-.0576-.55774-.3453-.63481-.2876-.07707-.5395.07321-.6196.37203-.2295.85658-.46011 1.71718-.68964 2.57378-.079.2949.06726.5561.35594.6292Z"/></symbol><symbol id="pdf" viewBox="0 0 48 50"><path d="M13.4996 0c-.2323.1712-.5013.318-.697.5136C8.743 4.7322 4.6833 8.963.6114 13.1695.1834 13.6097 0 14.0743 0 14.6857c.0122 10.3816.0122 20.7631 0 31.1446 0 1.6752.6236 2.9958 2.1521 3.7417.5503.269 1.2106.4158 1.8342.4158 9.5256.0244 19.0389.0244 28.5644.0122 2.3356 0 3.9863-1.663 3.9986-4.0108.0122-2.6412 0-5.2702 0-7.9114v-.5747h7.3979c1.9809 0 3.167-1.1739 3.167-3.1548V20.4329c0-1.9443-1.1983-3.1304-3.1426-3.1304-2.2744-.0122-4.561 0-6.8354 0h-.5869V4.1086c0-1.6752-.697-2.9592-2.2133-3.705-.3668-.1835-.7948-.269-1.1983-.3914C26.5835 0 20.0416 0 13.4996 0Zm1.8831 1.932H32.404c1.4796 0 2.2133.7337 2.2133 2.2133v13.145H18.6354c-2.0543 0-3.2527 1.1861-3.2527 3.2282v13.7686c0 .3546.0245.7215.1223 1.0638.3546 1.3329 1.4674 2.1399 2.9592 2.1399h16.1531v8.3395c0 1.5162-.7215 2.2255-2.25 2.2255H4.1942c-1.5407 0-2.2622-.7215-2.2622-2.2744V15.3827h12.069c1.1005 0 1.3817-.2812 1.3817-1.3817V1.932Zm15.8719 33.639H18.7087c-1.1249 0-1.394-.269-1.394-1.4184V20.6285c0-1.1127.2813-1.394 1.3818-1.394h25.1406c1.0761 0 1.3696.2935 1.3696 1.3573v13.6097c0 1.0761-.2935 1.3695-1.3573 1.3695H31.2546ZM13.4385 2.629v10.7973H3.0448C6.5297 9.8068 9.9535 6.2485 13.4385 2.629Z"/><path d="M28.1113 31.779v-8.2294c.0245-.0244.0489-.0611.0734-.0611 1.3818.0244 2.7757-.0367 4.1453.0856 1.2594.11 2.042.9904 2.3966 2.1521.428 1.4184.4402 2.8491-.1956 4.2309-.428.917-1.1372 1.5284-2.1032 1.6263-1.4307.1589-2.8613.1467-4.3165.1956Zm1.6875-6.8599v5.3803c.6603 0 1.2839.0367 1.8953-.0122.8437-.0611 1.3206-.4524 1.4307-1.2717.11-.807.1467-1.6508.0734-2.47-.0979-.9905-.6237-1.5408-1.4674-1.6264-.6359-.0489-1.2717 0-1.932 0Zm-7.7267 3.6821v3.0937h-1.6385v-8.2294c.4769 0 .9171-.0123 1.3695 0 .9538.0244 1.9198.0244 2.8736.0856.9538.0611 1.6874.6847 1.9198 1.614.3913 1.553-.159 3.3627-2.5801 3.4239-.6237.0244-1.2595.0122-1.9443.0122Zm.0245-1.3451c.7214-.0489 1.3817-.0611 2.042-.1467.5258-.0734.856-.5136.8682-1.0272.0123-.5135-.269-1.0027-.7948-1.0883-.697-.11-1.4062-.0978-2.1154-.1467v2.4089Zm14.379-3.7676h5.6004v1.3695h-3.9374v1.9442h3.3627v1.394h-3.3872v3.5094h-1.6385v-8.2171Z"/></symbol><symbol id="whatsapp" viewBox="0 0 20 20"><path d="M12.8752 15.3752c-.375 0-.875 0-1.25-.125-2.37501-.875-3.75001-1.375-6.25001-4.75-1.5-2.12504-1.625-3.87504-.25-5.50004.5-.5 1.125-.625 1.75-.5.25 0 .75 0 1 .75.125.125.25.5.375.75.375.75.5 1.125.5 1.25.125.25.125.625 0 .875-.25.375-.5.75-.75.875 0 .125-.125.125-.125.125.375.625.875 1.25004 1.375 1.75004.625.5 1.25001.875 2.00001 1.25h.125v-.125c.125-.25.5-.5.625-.875.5-.75.875-.5 2.75.375l.25.125h.125c.25.125.5.25.625.5v.125c.125.5 0 1-.125 1.5-.5.875-1.25 1.375-2.125 1.5-.25.125-.375.125-.625.125ZM6.50019 5.37516c-.25 0-.5.125-.625.25-1.125 1.25-1 2.5.25 4.37504 2.375 3 3.625 3.625 5.87501 4.375.5.125 1 .125 1.5.125.625-.125 1.125-.5 1.5-1 .125-.25.125-.5.125-.75l-.625-.25-1.5-.75c-.25.375-.5.75-.75.875l-.125.125c-.25.375-.625.375-1.125.25-1-.375-1.75001-.875-2.37501-1.5-.625-.5-1.125-1.25-1.5-1.87504-.375-.5 0-.875.25-1.125.125-.25.25-.5.5-.875v-.25s-.25-.625-.5-1c-.125-.25-.25-.625-.375-.75 0-.125-.125-.125-.125-.125h-.25c0-.125-.125-.125-.125-.125Z"/><path d="M10 1.25c4.75 0 8.75 3.875 8.75 8.625 0 1.375-.375 2.75-1 4-1.5 2.875-4.5 4.625-7.75 4.625-1.375 0-2.875-.375-4.125-1l-.375-.25-.5.125-3.25.875.75-2.875.125-.5-.25-.5C1.625 13 1.25 11.5 1.25 10c0-4.875 3.875-8.75 8.75-8.75ZM10 0C4.5 0 0 4.5 0 10c0 1.75.5 3.5 1.375 5L0 20l5.25-1.375c1.5.75 3.125 1.25 4.75 1.25 3.625 0 7-1.875 8.875-5.25.75-1.375 1.125-3 1.125-4.625 0-5.625-4.5-10-10-10Z"/></symbol><symbol id="whatsapp2" viewBox="0 0 20 20"><path fill-rule="evenodd" d="M17.1 2.9C15.2 1 12.7 0 10 0 4.5 0 0 4.5 0 10c0 1.8.5 3.5 1.3 5L0 20l5.3-1.4c1.5.8 3.1 1.2 4.8 1.2 5.5 0 10-4.5 10-10-.1-2.5-1.1-5-3-6.9ZM10 18.2c-1.5 0-2.9-.4-4.2-1.2l-.3-.2-3.1.8.8-3.1-.2-.2c-.8-1.3-1.2-2.8-1.2-4.4 0-4.6 3.7-8.3 8.3-8.3 2.2 0 4.3.9 5.9 2.4 1.6 1.6 2.4 3.6 2.4 5.9-.1 4.6-3.8 8.3-8.4 8.3Zm4.6-6.2c-.2-.1-1.5-.7-1.7-.8-.2-.1-.4-.1-.6.1-.2.2-.6.8-.8 1-.1.2-.3.2-.5.1s-1.1-.4-2-1.3c-.7-.7-1.2-1.5-1.4-1.7-.1-.3 0-.4.1-.5.1-.1.3-.3.4-.5.1-.1.2-.2.2-.4.1-.2 0-.3 0-.4 0-.1-.5-1.4-.7-1.9-.2-.4-.5-.4-.6-.4h-.5c-.2 0-.4.1-.7.3-.3.2-.8.9-.8 2.1 0 1.2.9 2.4 1 2.6.1.2 1.8 2.7 4.3 3.8.6.3 1.1.4 1.4.5.6.2 1.1.2 1.6.1s1.5-.6 1.7-1.2c.2-.6.2-1.1.1-1.2-.1-.1-.3-.2-.5-.3Z" clip-rule="evenodd"/></symbol><symbol id="vkontakte" viewBox="0 0 30 30"><path d="M15 0C6.7 0 0 6.7 0 15s6.7 15 15 15 15-6.7 15-15S23.3 0 15 0Zm6.5 21.6c-.8-2.4-2.7-4.2-5.2-4.5v4.5H16c-6.8 0-10.7-4.7-10.9-12.5h3.4c.1 5.7 2.6 8.2 4.6 8.7V9.1h3.2V14c2-.2 4-2.5 4.7-4.9h3.2c-.5 3-2.8 5.3-4.4 6.2 1.6.8 4.2 2.7 5.1 6.3h-3.4Z"/></symbol><symbol id="facebook" viewBox="0 0 30 30"><path d="M30 15c0-8.3-6.7-15-15-15S0 6.7 0 15c0 7.5 5.5 13.7 12.7 14.8V19.3H8.8V15h3.8v-3.3c0-3.8 2.2-5.8 5.7-5.8 1.6 0 3.4.3 3.4.3v3.7h-1.9c-1.9 0-2.4 1.2-2.4 2.3V15h4.2l-.7 4.3h-3.5v10.5C24.5 28.7 30 22.5 30 15Z"/></symbol><symbol id="instagram" viewBox="0 0 30 30"><path d="M15 2.89995c3.9 0 4.4 0 6 .1 1.4.1 2.2.3 2.7.5.7.3 1.2.6 1.7 1.1.5.5.8 1 1.1 1.7.2.5.4 1.3.5 2.7C27.1 10.6 27.1 11 27.1 15s0 4.4-.1 6c-.1 1.4-.3 2.2-.5 2.7-.3.7-.6 1.2-1.1 1.7-.5.5-1 .8-1.7 1.1-.5.2-1.3.4-2.7.5-1.6.1-2 .1-6 .1s-4.4 0-6.00005-.1c-1.4-.1-2.2-.3-2.7-.5-.7-.3-1.2-.6-1.7-1.1-.5-.5-.8-1-1.1-1.7-.2-.5-.4-1.3-.5-2.7-.1-1.6-.1-2-.1-6s0-4.4.1-6.00005c.1-1.4.3-2.2.5-2.7.3-.7.6-1.2 1.1-1.7.5-.5 1-.8 1.7-1.1.5-.2 1.3-.4 2.7-.5 1.60005-.1 2.10005-.1 6.00005-.1Zm0-2.699999c-4 0-4.5 0-6.10005.1-1.6.1-2.6.3-3.6.7-1 .399999-1.8.899999-2.6 1.699999s-1.3 1.7-1.699999 2.6c-.4.9-.6 2-.7 3.6 0 1.60005-.1 2.10005-.1 6.10005s0 4.5.1 6.1c.1 1.6.3 2.6.7 3.6.399999 1 .899999 1.8 1.699999 2.5999.8.8 1.6 1.3001 2.6 1.7001.9.4 2 .6 3.6.7C10.5 29.8 11 29.7999 15 29.7999s4.5.0001 6.1-.0999c1.6-.1 2.6-.3 3.6-.7 1-.4 1.8-.9001 2.5999-1.7001C28.0999 26.5 28.6 25.7 29 24.7c.4-.9.6-2 .7-3.6.1-1.6.0999-2.1.0999-6.1 0-4 .0001-4.5-.0999-6.10005-.1-1.6-.3-2.6-.7-3.6-.4-1-.9001-1.8-1.7001-2.6-.7999-.8-1.5999-1.3-2.5999-1.699999-.9-.4-2-.6-3.6-.7-1.6 0-2.1-.1-6.1-.1Z"/><path d="M14.9999 7.3999c-4.2 0-7.6 3.4-7.6 7.6 0 4.2 3.4 7.6 7.6 7.6 4.2 0 7.6-3.4 7.6-7.6 0-4.2-3.4-7.6-7.6-7.6Zm0 12.5c-2.7 0-4.9-2.2-4.9-4.9s2.2-4.9 4.9-4.9 4.9 2.2 4.9 4.9-2.2 4.9-4.9 4.9ZM22.8999 8.90005c.9941 0 1.8-.80589 1.8-1.8s-.8059-1.8-1.8-1.8c-.9942 0-1.8.80589-1.8 1.8s.8058 1.8 1.8 1.8Z"/></symbol><symbol id="youtube" viewBox="0 0 28 20"><path d="M27.2001 3.30005c-.3-1.2-1.2001-2.1-2.4001-2.400001-2.2-.6-10.8-.6-10.8-.6s-8.59995 0-10.69995.6c-1.2.300001-2.2 1.200001-2.500001 2.400001-.5 2.2-.5 6.69995-.5 6.69995s0 4.5001.6 6.7001C1.20005 17.9001 2.10005 18.8 3.30005 19.1c2.1.6 10.69995.6001 10.69995.6001S22.6 19.7 24.7001 19.1c1.2-.3 2.1-1.2999 2.3999-2.3999.6001-2.2.6001-6.7001.6001-6.7001s.1-4.49995-.5-6.69995ZM11.2 14.1V5.90005L18.4 10l-7.2 4.1Z"/></symbol><symbol id="tg-round" viewBox="0 0 30 30"><path d="M15 0C6.7 0 0 6.7 0 15s6.7 15 15 15 15-6.7 15-15S23.3 0 15 0zm6.9 10.2c-.2 2.4-1.2 8.1-1.7 10.8-.2 1.1-.6 1.5-1 1.5-.9.1-1.5-.6-2.4-1.1-1.3-.9-2.1-1.4-3.3-2.2-1.5-1-.5-1.5.3-2.4.2-.2 4.1-3.7 4.1-4 0 0 0-.2-.1-.3-.1-.1-.2 0-.3 0-.1 0-2.2 1.4-6.3 4.2-.6.4-1.1.6-1.6.6S8 17 7.3 16.8c-.9-.3-1.7-.5-1.6-1 0-.3.4-.5 1.1-.8 4.4-1.9 7.3-3.2 8.7-3.8 4.2-1.7 5-2 5.6-2 .1 0 .4 0 .6.2.1.1.2.3.2.4 0-.1.1.2 0 .4z"/></symbol><symbol id="tg-small" viewBox="0 0 20 20"><path d="M10 18.5c4.6944 0 8.5-3.8056 8.5-8.5S14.6944 1.5 10 1.5 1.5 5.3056 1.5 10s3.8056 8.5 8.5 8.5ZM20 10c0 5.5228-4.4772 10-10 10-5.5229 0-10-4.4772-10-10C0 4.4771 4.4771 0 10 0c5.5228 0 10 4.4771 10 10Z"/><path d="M4.5218 9.8918c2.9142-1.2656 4.8543-2.1066 5.8285-2.5145 2.7727-1.1574 3.3555-1.3572 3.7302-1.3656.0833 0 .2664.0167.3913.1166.1.0832.1249.1915.1416.2748.0166.0832.0333.258.0166.3913-.1498 1.582-.7993 5.4205-1.1324 7.1857-.1415.7494-.4163.9991-.6827 1.0241-.5829.05-1.0242-.383-1.582-.7494-.8826-.5745-1.3739-.9325-2.2315-1.4987-.9909-.6495-.3497-1.0075.2165-1.5903.1499-.1499 2.7061-2.4813 2.756-2.6895.0083-.025.0083-.1249-.0499-.1748-.0583-.05-.1416-.0333-.2082-.0167-.0916.0167-1.4904.9492-4.2132 2.7894-.3996.2747-.7577.408-1.0824.3996-.358-.0083-1.0408-.1998-1.557-.3663-.6245-.1999-1.124-.3081-1.0825-.6578.025-.1832.2748-.3664.7411-.5579Z"/></symbol><symbol id="phone-call" viewBox="0 0 16 16"><path d="M12.6334 9.91174c-.3276-.34107-.7227-.52342-1.1414-.52342-.4153 0-.8138.17897-1.1549.52004L9.27 10.9721c-.0878-.0473-.17559-.0912-.26002-.1351-.12157-.0608-.23638-.1182-.33431-.179-.99957-.6348-1.90796-1.46217-2.7792-2.53265-.42211-.53355-.70577-.98268-.91176-1.43856.2769-.25327.53355-.51667.78344-.76994.09455-.09455.18911-.19248.28366-.28703.70915-.70915.70915-1.62767 0-2.33683l-.9219-.92189c-.10468-.10469-.21274-.21275-.31405-.32081-.20261-.20937-.41536-.42549-.63486-.6281C3.85344 1.098 3.46172.925781 3.04974.925781c-.41199 0-.81046.172219-1.14815.496409-.00338.00337-.00338.00337-.00676.00675L.746685 2.58722c-.432245.43225-.678759.95904-.7327895 1.57026-.0810458.98606.2093685 1.90458.4322445 2.50567.547059 1.47571 1.36427 2.84336 2.58334 4.30895 1.47908 1.7661 3.25871 3.1608 5.29161 4.1435.77669.368 1.81341.8037 2.97171.878.0709.0033.1452.0067.2127.0067.7801 0 1.4352-.2803 1.9485-.8375.0034-.0067.0101-.0101.0135-.0169.1756-.2127.3782-.4052.591-.6112.1452-.1384.2938-.2836.439-.4356.3343-.3478.5099-.753.5099-1.1684 0-.4187-.179-.8206-.5201-1.1583l-1.8539-1.86066Zm1.2089 3.55586c-.0033 0-.0033.0034 0 0-.1317.1419-.2667.2702-.4119.412-.2195.2094-.4424.4289-.6518.6754-.3411.3647-.7429.5369-1.2697.5369-.0507 0-.1047 0-.1553-.0034-1.003-.0641-1.93501-.4558-2.63403-.7902-1.91133-.9252-3.58966-2.2388-4.98432-3.9037-1.15153-1.38787-1.92146-2.6711-2.43138-4.04888C.989822 5.50487.875007 4.84975.925661 4.23178c.033769-.3951.185729-.72266.466009-1.00295L2.5432 2.07731c.16547-.15534.34107-.23976.51329-.23976.21275 0 .38497.12832.49303.23638l.01013.01013c.20599.19249.40185.39172.60784.60447.10469.10806.21275.21612.32081.32756l.9219.92189c.35795.35796.35795.68889 0 1.04685-.09793.09793-.19249.19586-.29042.29041-.28366.29041-.55381.56057-.8476.82397-.00676.00675-.01351.01013-.01689.01688-.29041.29042-.23638.57408-.1756.76656l.01014.03039c.23976.58083.57745 1.12789 1.09074 1.77963l.00337.00338c.93203 1.14815 1.91471 2.04305 2.9987 2.72855.13845.0878.28028.1587.41536.2262.12157.0608.23638.1182.33431.179.01351.0068.02702.0169.04053.0237.11481.0574.22287.0844.33431.0844.28028 0 .45588-.1756.51329-.233L10.9753 10.55c.1149-.1148.2972-.2533.51-.2533.2093 0 .3815.1317.4862.2465l.0068.0068 1.8607 1.8607c.3478.3444.3478.699.0033 1.0569ZM8.63502 3.80573c.88475.14858 1.68848.56732 2.33008 1.20893.6416.64162 1.057 1.44532 1.2089 2.33007.0372.22288.2297.37821.4492.37821.027 0 .0506-.00337.0776-.00675.2499-.04052.4154-.27691.3749-.5268-.1824-1.07048-.6889-2.0464-1.4622-2.81972-.7733-.77331-1.74928-1.27985-2.81977-1.4622-.24989-.04052-.4829.12495-.5268.37146-.0439.24652.11819.48628.36809.5268ZM15.97 7.05794c-.3005-1.76275-1.1312-3.36678-2.4077-4.64325C12.2858 1.13821 10.6818.307495 8.91905.00695018 8.67253-.0369496 8.43953.131896 8.39563.37841c-.04053.249892.12494.482898.37483.526798C10.3441 1.17198 11.7793 1.91828 12.9207 3.0563c1.1414 1.14139 1.8843 2.57658 2.1511 4.15022.0371.22288.2296.37821.4491.37821.027 0 .0506-.00337.0777-.00675.2465-.03714.4153-.27353.3714-.52004Z"/></symbol><symbol id="close" fill="none" viewBox="0 0 16 16"><path stroke-linecap="round" stroke-width="2.5" d="m1 1 14 14m0-14L1 15"/></symbol><symbol id="close-2" viewBox="0 0 16 16"><path stroke-linecap="round" stroke-width="2.5" d="m1 1 14 14m0-14L1 15"/></symbol><symbol id="home" viewBox="0 0 10 10"><path d="M9.2 2.8 5.3.1c-.2-.1-.4-.1-.6 0L.8 2.8c-.5.3-.8.8-.8 1.4v4c0 1 .8 1.7 1.7 1.7h6.5c1 0 1.7-.8 1.7-1.7v-4c.1-.6-.2-1.1-.7-1.4zm-5.3 4c0-.6.5-1.1 1.1-1.1.3 0 .6.1.8.3s.3.5.3.8v2.1H3.9V6.8zM5 4.7c-1.2 0-2.2 1-2.2 2.2V9h-1c-.4 0-.7-.3-.7-.7v-4c0-.2.1-.4.3-.6L5 1.2l3.6 2.5c.2.1.3.3.3.5v4c0 .4-.3.7-.7.7h-1V6.8c0-1.2-1-2.1-2.2-2.1z"/></symbol><symbol id="minus" viewBox="0 0 16 2"><path stroke-linecap="round" stroke-linejoin="round" stroke-width="2" d="M1.19995 1H14.8"/></symbol><symbol id="plus" viewBox="0 0 16 16"><path stroke-linecap="round" stroke-linejoin="round" stroke-width="2" d="M8 1.20001V14.8M1.19995 8H14.8"/></symbol><symbol id="short-arrow-down" viewBox="0 0 12 12"><path stroke-linecap="round" stroke-linejoin="round" stroke-width="2" d="M6 11V1m0 10L1 6.4717M6 11l5-4.5283"/></symbol><symbol id="short-arrow-right" viewBox="0 0 12 12"><path fill-rule="evenodd" d="M5.80042.258803c-.40936.370738-.44066 1.003127-.06993 1.412487l3.01469 3.32872H1c-.552285 0-1 .44771-1 1 0 .55228.447715 1 1 1h7.74518L5.73049 10.3287c-.37073.4094-.33943 1.0418.06993 1.4125.40935.3707 1.04174.3394 1.41248-.0699l4.5283-5.00001c.3451-.38101.3451-.96156 0-1.34256L7.2129.328728C6.84216-.0806277 6.20977-.111934 5.80042.258803Z" clip-rule="evenodd"/></symbol><symbol id="short-arrow-right-light" viewBox="0 0 10 11"><path fill="#00171F" fill-rule="evenodd" d="M5.12271.617638c-.18607.168517-.2003.455962-.03178.642042l3.42863 3.78577H.453568c-.251038 0-.45454456.20351-.45454456.45455 0 .25104.20350656.45455.45454456.45455H8.51956L5.09093 9.74032c-.16852.18608-.15429.47348.03178.64208.18607.1685.47352.1542.64204-.0318l4.11664-4.54547c.15681-.17319.15681-.43707 0-.61026L5.76475.649422C5.59623.463351 5.30878.449121 5.12271.617638Z" clip-rule="evenodd"/></symbol><symbol id="short-arrow-left" viewBox="0 0 12 12"><path fill-rule="evenodd" d="M6.19958.258803c.40936.370738.44066 1.003127.06993 1.412487L3.25482 5.00001H11c.5523 0 1 .44771 1 1 0 .55228-.4477 1-1 1H3.25482l3.01469 3.32869c.37073.4094.33943 1.0418-.06993 1.4125-.40935.3707-1.04174.3394-1.41248-.0699L.258796 6.67129c-.3450612-.38101-.3450612-.96156 0-1.34256L4.7871.328728c.37074-.4093557 1.00313-.440662 1.41248-.069925Z" clip-rule="evenodd"/></symbol><symbol id="geolocation" viewBox="0 0 8 10"><path d="M3.99955 0C2.00258 0 .37793 1.62465.37793 3.6216c0 2.47828 3.241 6.11655 3.37898 6.27022.12961.14438.3559.14408.48528 0 .13799-.15367 3.37898-3.79194 3.37898-6.27022C7.62113 1.62465 5.9965 0 3.99955 0Zm0 5.44373c-1.00473 0-1.82211-.8174-1.82211-1.82213 0-1.00472.8174-1.82211 1.82211-1.82211 1.00471 0 1.82209.8174 1.82209 1.82213s-.81738 1.82211-1.82209 1.82211Z"/></symbol></svg>