<svg width="54" height="10" viewBox="0 0 54 10" fill="none" xmlns="http://www.w3.org/2000/svg">
<g clip-path="url(#clip0_194_3472)">
<path d="M15.876 7.42352C15.3992 7.42497 14.9326 7.28406 14.5349 7.01852C14.1379 6.75325 13.8278 6.37491 13.6442 5.93152C13.4607 5.48881 13.412 5.00096 13.5044 4.53022C13.5968 4.05948 13.826 3.62719 14.1629 3.28851C14.5001 2.94831 14.9297 2.71655 15.3974 2.62249C15.865 2.52843 16.3498 2.57629 16.7905 2.76001C17.2315 2.94351 17.608 3.25401 17.8735 3.65251C18.1832 4.11815 18.3229 4.67795 18.2686 5.23608C18.2144 5.79421 17.9697 6.31596 17.5763 6.71202C17.1249 7.16663 16.5136 7.42243 15.876 7.42352ZM15.876 1.37412e-05C15.0397 -0.00195812 14.2164 0.208322 13.4817 0.611514C12.7479 1.01419 12.1266 1.59717 11.6754 2.30651C10.9949 3.37608 10.7448 4.66751 10.9761 5.91697C11.2074 7.16642 11.9027 8.27958 12.9199 9.02902C13.5947 9.52768 14.3829 9.84693 15.2121 9.95738C16.0412 10.0678 16.8846 9.96591 17.6644 9.66102C18.4436 9.35693 19.1343 8.85962 19.6728 8.21502C19.3444 8.82952 18.8693 9.34402 18.3194 9.66751V9.92552H20.8361V4.97401C20.8297 3.65347 20.3047 2.38938 19.3761 1.45901C18.4453 0.52639 17.1876 0.00209037 15.876 1.37412e-05ZM39.743 7.47202H36.4693V5.85002H39.6811C40.0824 5.85002 40.551 6.23002 40.551 6.66152C40.551 6.97452 40.3073 7.47302 39.743 7.47302V7.47202ZM36.4693 2.53201L39.2189 2.53051C39.5166 2.53051 40.0091 2.84001 40.0091 3.33501C40.0091 3.73001 39.69 4.15501 39.1361 4.15501H36.4693V2.53101V2.53201ZM41.9793 4.70101C42.5763 3.78851 42.6313 2.54101 42.0858 1.60851C41.8152 1.14672 41.4307 0.763599 40.9697 0.496514C40.5081 0.228893 39.986 0.0861151 39.4537 0.0820138H33.9516V9.92502L40.1071 9.92101C42.0383 9.92101 43.1158 8.31852 43.1158 6.97402C43.1158 5.68052 42.3841 5.03151 41.9788 4.70001L41.9793 4.70101ZM31.4632 3.70901C32.289 5.95002 32.3311 7.98302 32.3311 9.92552H29.7763C29.7763 8.35002 29.7213 6.91552 29.3933 5.61802C28.9534 3.87951 28.135 2.61551 27.374 2.61551C26.6136 2.61551 25.7942 3.87951 25.3547 5.61802C25.0268 6.91552 24.9723 8.31301 24.9723 9.92552H22.4174C22.4174 8.15802 22.459 5.95002 23.2849 3.70901C24.0548 1.62151 25.4939 1.37412e-05 27.3745 1.37412e-05C29.2551 1.37412e-05 30.6928 1.62151 31.4632 3.70901ZM7.3653 0.0815138H9.92114V1.11851C9.92173 1.86324 9.75685 2.59861 9.43861 3.27051C9.12013 3.94302 8.65667 4.53513 8.08217 5.00352C8.65673 5.47204 9.12019 6.06433 9.43861 6.73702C9.75685 7.40892 9.92173 8.14429 9.92114 8.88902V9.92601H7.36481V8.62952C7.36488 8.31178 7.30276 7.99716 7.18204 7.70371C7.06132 7.41026 6.88436 7.14376 6.66132 6.91952C6.20978 6.46555 5.59841 6.21067 4.96107 6.21067C4.32372 6.21067 3.71235 6.46555 3.26081 6.91952C3.03759 7.14368 2.86045 7.41014 2.73956 7.70359C2.61866 7.99704 2.5564 8.31171 2.55633 8.62952V9.92552H2.54345e-06V8.88852C-0.000575028 8.1438 0.164314 7.40842 0.482535 6.73652C0.801328 6.06393 1.26512 5.47181 1.83997 5.00352C1.26486 4.53515 0.800885 3.94285 0.482039 3.27001C0.163974 2.59807 -0.000746536 1.8627 2.54345e-06 1.11801V0.0815138H2.55633V1.37751C2.55633 2.01851 2.80949 2.63351 3.26031 3.08701C3.71185 3.54098 4.32323 3.79586 4.96057 3.79586C5.59791 3.79586 6.20929 3.54098 6.66083 3.08701C6.88404 2.86285 7.06118 2.59639 7.18208 2.30294C7.30297 2.00949 7.36524 1.69482 7.3653 1.37701V0.0820138V0.0815138ZM49.0394 7.42352C48.5628 7.42493 48.0963 7.28402 47.6988 7.01852C47.4017 6.82101 47.152 6.55916 46.9677 6.252C46.7835 5.94483 46.6694 5.60008 46.6338 5.24283C46.5981 4.88557 46.6419 4.52479 46.7617 4.18673C46.8816 3.84867 47.0746 3.54182 47.3268 3.28851C47.5792 3.03479 47.884 2.84049 48.2194 2.71951C48.5549 2.59853 48.9126 2.55385 49.2672 2.58868C49.6217 2.62351 49.9643 2.73697 50.2703 2.92097C50.5763 3.10496 50.8383 3.35494 51.0374 3.65301C51.347 4.11855 51.4867 4.67821 51.4326 5.23623C51.3785 5.79424 51.1339 6.31593 50.7407 6.71202C50.2891 7.16682 49.6774 7.42264 49.0394 7.42352ZM54 4.97401C53.9927 3.79987 53.5752 2.66598 52.8209 1.77201C52.0649 0.876437 51.0213 0.277245 49.8722 0.0790138C48.7222 -0.11971 47.5396 0.0949117 46.5302 0.685514C45.5226 1.27467 44.7528 2.20314 44.3558 3.30801C43.9599 4.41166 43.9631 5.62099 44.3647 6.72252C44.7671 7.82536 45.5415 8.74994 46.552 9.33401C47.5643 9.91947 48.748 10.1281 49.897 9.92352C51.0451 9.71953 52.0858 9.11502 52.8373 8.21552C52.5088 8.82952 52.0337 9.34402 51.4833 9.66751V9.92552H54V4.97401H53.9995H54Z" fill="#F04E53"/>
</g>
<defs>
<clipPath id="clip0_194_3472">
<rect width="54" height="10" fill="white"/>
</clipPath>
</defs>
</svg>
