<svg width="72" height="16" viewBox="0 0 72 16" fill="none" xmlns="http://www.w3.org/2000/svg">
<path fill-rule="evenodd" clip-rule="evenodd" d="M18.0034 7.48376L18.24 6.73976L17.4566 6.76424C17.3909 6.76424 16.9094 6.75012 16.4434 6.41835C16.4784 6.42118 16.5125 6.42635 16.549 6.42635C17.029 6.42635 17.4941 6.14212 17.6798 5.73553L18.0168 5.00141C17.5944 5.00706 17.208 4.95482 17.208 4.95482C17.2046 4.95482 16.9003 4.91576 16.5485 4.56235C16.296 4.30965 15.9835 4.17553 15.6451 4.17553C15.5111 4.17604 15.3781 4.19683 15.2506 4.23718C15.2683 4.17788 15.2851 4.11718 15.2952 4.05506C15.4022 3.368 14.9525 2.84471 14.9525 2.84471L14.3635 2.12847L13.9982 2.96988C13.9968 2.97271 13.9046 3.17035 13.74 3.26635C13.6901 3.01882 13.5677 2.74071 13.3066 2.47482C12.8136 1.97412 12.2141 1.89882 11.9002 1.89882C11.7547 1.89882 11.6506 1.91482 11.6256 1.91859L10.9147 2.056C10.9555 1.90024 11.0434 1.62776 11.2027 1.38353L11.5954 0.783529L10.608 0.894118L10.2936 0.238118L9.68448 0.546353L9.12144 0L8.55984 0.545882L7.94976 0.238118L7.63584 0.893647L6.64896 0.783059L7.04208 1.384C7.20192 1.62824 7.2888 1.89929 7.3296 2.05506L6.65136 1.92329L6.62784 1.92C6.53417 1.90553 6.43947 1.89845 6.34464 1.89882C6.03072 1.89882 5.4312 1.97412 4.93968 2.47482C4.67808 2.74024 4.5552 3.01882 4.50528 3.26635C4.3416 3.17082 4.24992 2.97694 4.24992 2.97694L3.88416 2.12988L3.2856 2.85176C3.21264 2.94447 2.85216 3.43671 2.9496 4.05647C2.96016 4.11812 2.97648 4.17835 2.99424 4.23765C2.86711 4.19717 2.73431 4.17637 2.60064 4.176C2.26176 4.176 1.94928 4.31012 1.69632 4.56282C1.34592 4.91482 1.04304 4.95482 1.04544 4.95482C1.04544 4.95482 0.72528 5.01129 0.22944 5.00188L0.56496 5.736C0.7512 6.14259 1.2168 6.42682 1.69584 6.42682C1.73232 6.42682 1.7664 6.42165 1.80192 6.41882C1.33632 6.75106 0.85536 6.76471 0.79728 6.76471L0 6.73976L0.24144 7.48329C0.36336 7.86729 0.76944 8.50212 1.54704 8.57035C1.46256 8.91859 1.27488 9.30918 0.86304 9.47765L0.2688 9.71765L0.5928 10.272C0.77568 10.5708 1.20528 10.9205 1.81632 10.9205C1.94832 10.9205 2.076 10.9068 2.19936 10.8814C2.23056 11.0179 2.26992 11.1544 2.31648 11.2908C2.49792 11.8226 2.34144 12.1934 2.33952 12.1976L2.04672 12.8009L2.70096 12.9704C2.70912 12.9732 2.90736 13.0268 3.15456 13.0268C3.26688 13.0268 3.3744 13.0151 3.4752 12.9915C3.55104 12.9741 3.624 12.9506 3.69456 12.9228C3.77952 13.072 3.88224 13.2085 4.00224 13.3304C4.42176 13.7534 5.01696 13.9675 5.7696 13.9675H5.772L6.3096 13.9605L5.19888 14.4141L6.04224 14.8146C6.34896 14.9614 6.71184 15.1346 7.0824 15.2673L6.9768 15.5501L7.2672 15.6805C7.29312 15.6922 7.8528 15.9374 8.7816 15.9896C8.7816 15.9896 9.00576 16 9.12912 16C9.25296 16 9.47472 15.9892 9.47472 15.9892C10.3973 15.9355 10.9522 15.6922 10.9781 15.6805L11.2694 15.5501L11.1634 15.2668C11.5435 15.1304 11.9203 14.9496 12.2146 14.8089L13.0421 14.4136L11.9347 13.9605L12.4747 13.9675C13.2283 13.9675 13.8235 13.7529 14.2426 13.3299C14.3621 13.2085 14.4643 13.0725 14.5498 12.9228C14.7211 12.9923 14.9048 13.0275 15.0902 13.0264C15.3336 13.0264 15.5338 12.9736 15.539 12.9718L16.1966 12.8009L15.9101 12.2085C15.9034 12.1934 15.7469 11.8226 15.9283 11.2899C15.9749 11.1544 16.0138 11.0174 16.0454 10.8814C16.1688 10.9068 16.2979 10.92 16.4309 10.9205C17.2094 10.9205 17.5829 10.3826 17.6549 10.2659L17.976 9.71718L17.3818 9.47765C16.969 9.30965 16.7818 8.91906 16.6982 8.57129C17.4658 8.50541 17.8771 7.87012 18.0038 7.48424L18.0034 7.48376Z" fill="#FFFFFE"/>
<path fill-rule="evenodd" clip-rule="evenodd" d="M9.12151 2.27899C8.49271 2.27946 8.02087 2.48182 7.91815 2.72041L9.12151 3.18629L10.3254 2.72041C10.2236 2.48182 9.75175 2.27946 9.12151 2.27899ZM9.13447 14.6268H9.11047C8.72935 14.6291 8.20375 14.5524 7.95127 14.4795L7.64695 15.2884C7.84759 15.3585 8.52727 15.4931 9.12295 15.4931C9.71767 15.4931 10.3978 15.3585 10.598 15.2884L10.2942 14.4799C10.0402 14.5524 9.51559 14.6291 9.13447 14.6268ZM11.437 13.8221C11.2105 13.9482 10.705 14.1373 10.4108 14.2249L10.6575 14.8931C11.1125 14.7708 11.4884 14.6282 11.7985 14.4752L11.2858 14.3082L11.437 13.8221ZM6.80743 13.8221L6.95911 14.3082L6.44599 14.4752C6.75559 14.6282 7.13287 14.7708 7.58647 14.8926L7.83367 14.2244C7.53991 14.1369 7.03351 13.9482 6.80743 13.8221ZM9.12151 1.50582C9.59623 1.50582 10.0609 1.61735 10.419 1.81264C10.4516 1.70535 10.4972 1.57452 10.5591 1.43758L10.4237 1.45358L10.2822 1.4677L10.2221 1.34111L10.0407 0.966053L9.71143 1.13452L9.58279 1.19852L9.48007 1.0997L9.12151 0.751465L8.76391 1.0997L8.66167 1.19852L8.53351 1.13452L8.20231 0.966053L8.02327 1.34111L7.96231 1.46817L7.82023 1.45358L7.68583 1.43758C7.74775 1.57452 7.79287 1.70535 7.82599 1.81264C8.18503 1.61735 8.64967 1.50582 9.12199 1.50582H9.12151ZM16.3623 5.84323C16.4242 5.86394 16.4866 5.87335 16.5486 5.87335C16.8174 5.87335 17.0766 5.70252 17.1654 5.5077C17.1654 5.5077 16.6734 5.47852 16.1444 4.95099C15.9764 4.78064 15.7978 4.72935 15.6452 4.72935C15.4076 4.72935 15.229 4.85217 15.229 4.85217C15.8684 5.18629 15.9985 5.72276 16.3623 5.84323ZM1.69591 5.87288C1.75831 5.87288 1.82071 5.86394 1.88071 5.84276C2.24551 5.72229 2.37703 5.18629 3.01495 4.85264C3.01495 4.85264 2.83639 4.72935 2.60023 4.72935C2.44663 4.72935 2.26855 4.78017 2.09959 4.95147C1.57111 5.47852 1.07959 5.50817 1.07959 5.50817C1.16791 5.70252 1.42759 5.87335 1.69591 5.87335V5.87288Z" fill="#FFFFFE"/>
<path fill-rule="evenodd" clip-rule="evenodd" d="M16.17 9.69168C15.6756 9.45168 15.3636 8.81639 15.2878 8.58768C15.2062 9.84792 14.5798 10.7223 13.8478 11.5637C13.4676 12.0004 13.3352 12.4249 13.3352 12.4249C13.3352 12.4249 13.4086 11.9439 13.7369 11.5524C14.42 10.7467 15.0689 9.74345 15.1174 8.58297C15.1505 7.77356 14.9388 7.11709 14.6076 6.57592C14.7929 7.13921 14.7665 7.82956 14.1382 8.4738C14.1382 8.4738 15.3896 7.0018 13.6404 5.49215C12.9406 4.91803 12.1745 4.56321 11.7804 4.31191C13.2046 4.76838 13.9006 4.2658 13.9006 4.2658C13.4456 4.65309 12.8566 4.6465 12.4913 4.5905C12.5907 4.63803 12.6939 4.68791 12.8043 4.7458C14.0057 5.38674 15.0848 6.44133 15.2691 7.90109V7.8898C15.548 9.32368 16.17 9.69168 16.17 9.69168ZM16.5358 8.02109C16.5468 8.02203 16.5564 8.02203 16.5675 8.02203C17.2371 8.02203 17.4636 7.31756 17.4636 7.31756H17.4507C17.3278 7.31756 16.3323 7.28933 15.6286 6.41074C15.1659 5.83333 14.7862 5.32556 14.0364 5.12603L13.9625 5.11286L13.9467 5.03897C13.926 4.9265 14.0043 4.82109 14.1828 4.70768C15.2172 4.04227 14.514 3.19333 14.514 3.19333C14.514 3.19333 14.2193 3.87191 13.5584 3.87191L13.5089 3.87097C13.434 3.86721 13.3616 3.86486 13.2886 3.84933L13.1667 3.8258C13.1667 3.8258 13.3553 3.32227 12.9003 2.86062C12.558 2.51144 12.1409 2.45215 11.9004 2.45215C11.779 2.45215 11.7022 2.46768 11.7022 2.46768C11.9307 2.76085 12.0958 3.24791 11.8318 3.54815C11.6038 3.80603 11.047 3.81874 11.047 4.20368C11.047 4.3665 11.202 4.55662 11.4804 4.72744C12.3176 5.24509 13.1484 5.93215 13.494 6.85309C13.926 8.00133 13.4393 8.76368 12.7452 9.20086C12.7452 9.20086 12.9632 9.39756 13.2785 9.42298C13.3428 9.42909 13.4057 9.43192 13.4643 9.43192C14.131 9.43192 14.4756 9.12462 14.4756 9.12462C14.4756 9.12462 14.4185 9.54909 14.0724 9.94298C13.7518 10.3063 13.3318 10.5209 12.691 10.5298C12.691 10.5298 12.6708 10.8216 12.9545 11.0747C13.1364 11.2343 13.5555 11.2865 13.5555 11.2865C13.5555 11.2865 12.7702 11.4423 12.6833 12.5816C12.6363 13.199 12.476 13.4131 12.476 13.4131H12.4899C14.312 13.4131 14.2654 11.878 14.2654 11.878C14.2654 11.878 14.3921 12.3326 14.9004 12.4512C14.9619 12.4672 15.0276 12.4733 15.09 12.4733C15.2532 12.4733 15.3958 12.4357 15.3958 12.4357C15.3958 12.4357 15.1294 11.8842 15.3934 11.1129C15.6128 10.4724 15.5772 9.99803 15.5772 9.99803C15.5772 9.99803 15.8225 10.3627 16.4316 10.366H16.4379C16.5818 10.3682 16.7239 10.3348 16.8511 10.2688C16.9783 10.2028 17.0864 10.1065 17.1656 9.98862C15.9507 9.49309 16.0707 7.8945 16.0707 7.8945C16.0707 7.8945 16.2281 8.01027 16.5358 8.02156V8.02109ZM4.39707 11.5637C3.66507 10.7223 3.03867 9.84792 2.95611 8.58768C2.88075 8.81686 2.56923 9.45215 2.07531 9.69168C2.07531 9.69168 2.69643 9.32368 2.97531 7.8898V7.90109C3.16011 6.44133 4.23915 5.38674 5.44059 4.74627C5.55099 4.68744 5.65467 4.63803 5.75307 4.59097C5.38827 4.6465 4.79883 4.65309 4.34427 4.26627C4.34427 4.26627 5.04027 4.76838 6.46395 4.31191C6.07035 4.56321 5.30427 4.91803 4.60491 5.49215C2.85531 7.0018 4.10667 8.4738 4.10667 8.4738C3.47787 7.82909 3.45195 7.13968 3.63723 6.57592C3.30603 7.11709 3.09387 7.77356 3.12843 8.58345C3.17595 9.74345 3.82443 10.7467 4.50603 11.5529C4.83627 11.9434 4.91067 12.4244 4.91067 12.4244C4.91067 12.4244 4.77627 12.0004 4.39707 11.5637ZM4.68987 11.286C4.68987 11.286 5.10891 11.2343 5.29083 11.0743C5.57403 10.8216 5.55435 10.5298 5.55435 10.5298C4.91307 10.5209 4.49355 10.3063 4.17147 9.94298C3.82683 9.54909 3.76923 9.12462 3.76923 9.12462C3.76923 9.12462 4.11387 9.43192 4.77963 9.43192C4.83963 9.43192 4.90203 9.42909 4.96587 9.42298C5.16286 9.40342 5.34924 9.326 5.50059 9.20086C4.80555 8.76368 4.31883 8.00133 4.75035 6.85262C5.09595 5.93262 5.92635 5.24509 6.76443 4.72697C7.04235 4.55662 7.19691 4.3665 7.19691 4.20368C7.19691 3.81874 6.64107 3.80603 6.41307 3.54815C6.14907 3.24791 6.31467 2.76085 6.54267 2.46768C6.54267 2.46768 6.46635 2.45215 6.34443 2.45215C6.10443 2.45215 5.68731 2.51144 5.34459 2.86062C4.88859 3.32274 5.07819 3.82627 5.07819 3.82627L4.95627 3.8498C4.88379 3.86438 4.81035 3.86721 4.73547 3.87144L4.68747 3.87191C4.02507 3.87191 3.73083 3.1938 3.73083 3.1938C3.73083 3.1938 3.02859 4.04227 4.06299 4.70768C4.24059 4.82109 4.31883 4.92697 4.29819 5.03897L4.28235 5.11239L4.20699 5.12556C3.45867 5.32556 3.07899 5.83333 2.61531 6.41074C1.91163 7.28933 0.917073 7.31756 0.793713 7.31756H0.780273C0.780273 7.31756 1.00731 8.02203 1.67739 8.02203C1.68795 8.02203 1.69755 8.02203 1.70907 8.02109C2.01675 8.01027 2.17467 7.8945 2.17467 7.8945C2.17467 7.8945 2.29371 9.49309 1.07931 9.98862C1.07931 9.98862 1.30059 10.3665 1.80747 10.3665H1.81323C2.42283 10.3627 2.66763 9.99803 2.66763 9.99803C2.66763 9.99803 2.63211 10.4729 2.85051 11.1129C3.11451 11.8846 2.84955 12.4352 2.84955 12.4352C2.84955 12.4352 2.99115 12.4729 3.15483 12.4729C3.21819 12.4729 3.28299 12.4672 3.34395 12.4512C3.85179 12.3326 3.97899 11.878 3.97899 11.878C3.97899 11.878 3.93243 13.4131 5.75499 13.4131H5.76843C5.76843 13.4131 5.60859 13.199 5.56203 12.5816C5.47563 11.4427 4.68939 11.286 4.68939 11.286H4.68987ZM8.71083 5.62956H9.57003V5.91897C9.46923 5.79756 9.27243 5.8225 9.27243 5.8225V6.23991C9.27243 6.23991 9.27915 6.44509 9.35307 6.53403H8.92779C9.00219 6.44509 9.00843 6.23991 9.00843 6.23991V5.8225C9.00843 5.8225 8.81259 5.79756 8.71083 5.91897V5.62956ZM7.77483 5.67286C7.80459 5.70439 7.83387 5.73874 7.86219 5.77309C7.86891 5.78109 7.87515 5.78815 7.88187 5.79756C7.90827 5.83144 7.93467 5.86815 7.96011 5.90486L7.97739 5.9298C8.00763 5.97497 8.03643 6.02156 8.06523 6.07003C8.32827 6.51568 8.74875 6.78203 9.12171 6.7825C9.49563 6.78203 9.91563 6.51568 10.1792 6.07003C10.2084 6.02062 10.2377 5.97262 10.2684 5.92744C10.3035 5.87481 10.341 5.82377 10.3808 5.7745C10.41 5.73874 10.4403 5.70391 10.471 5.67191C10.4763 5.66721 10.4806 5.66203 10.4859 5.6578C10.6203 5.52321 10.7792 5.42062 10.9884 5.36368L10.8953 5.3105H10.8905L10.52 5.09968L10.1403 4.88556L9.12459 5.42862L9.12171 5.42627L9.12027 5.42862L8.10459 4.88556L7.72443 5.09968L7.35387 5.3105H7.34955L7.25595 5.36368C7.46475 5.42015 7.62411 5.5218 7.75851 5.65686C7.76427 5.66156 7.76811 5.66815 7.77483 5.67286Z" fill="#FFFFFE"/>
<path fill-rule="evenodd" clip-rule="evenodd" d="M8.79859 3.78967V4.06261L8.74531 4.03814C8.74291 4.03626 8.66419 4.01931 8.52835 3.91296C8.30323 3.74167 8.29891 3.58355 8.29891 3.58355L8.79811 3.78967H8.79859ZM9.03379 5.06826V3.3732L7.93555 3.00708L8.22547 4.64943L9.03427 5.06826H9.03379ZM9.44659 3.78967L9.94579 3.58355C9.94579 3.58355 9.94195 3.74167 9.71587 3.91296C9.58003 4.01884 9.50179 4.03626 9.49939 4.03814L9.44659 4.06214V3.78967ZM10.0192 4.6499L10.3077 3.00755L9.20995 3.3732V5.06826L10.0192 4.64943V4.6499ZM7.48051 8.99767C7.58755 9.03531 7.71715 9.04331 7.78387 9.04331C7.78627 9.03531 7.79011 9.02543 7.79347 9.0132C7.79875 8.99437 7.80451 8.97461 7.80883 8.9539C7.82755 8.85978 7.83379 8.7539 7.83571 8.6852C7.77432 8.64942 7.7243 8.5976 7.69123 8.53555C7.65043 8.45131 7.59235 8.41178 7.50739 8.41178C7.39699 8.41178 7.27843 8.47767 7.22707 8.50778C7.18675 8.74214 7.36291 8.95484 7.48051 8.9972V8.99767ZM9.91027 8.09837C9.70675 8.31626 9.30691 8.69602 9.28771 8.71484L9.26371 8.73837L8.00131 8.71908C8.00025 8.82147 7.98672 8.92337 7.96099 9.02261L7.95091 9.06167L9.45187 9.32708C9.60787 9.21978 10.0375 8.91155 10.2045 8.79061C10.0831 8.61649 10.0715 8.4099 10.0989 8.26496C10.0268 8.22033 9.96305 8.16399 9.91027 8.09837Z" fill="#FFFFFE"/>
<path fill-rule="evenodd" clip-rule="evenodd" d="M10.0817 6.60765C9.79077 6.89094 9.51189 6.99588 9.26277 7.02035C9.21718 7.0252 9.17135 7.02771 9.12549 7.02788H9.11925C9.02761 7.02787 8.93623 7.01841 8.84661 6.99965C8.83029 7.06318 8.80965 7.19635 8.86869 7.32247C8.92149 7.43683 9.02853 7.522 9.18501 7.57894L9.23781 7.59918L9.23829 7.65471C9.23829 7.67118 9.25077 8.03165 9.65109 8.13188C9.71637 8.066 9.77589 8.00624 9.81909 7.95588C9.73749 7.76718 9.78069 7.57424 9.89925 7.47965C9.89445 7.49988 9.84165 7.97282 10.2281 8.14882L10.2919 8.17847L10.2727 8.24483C10.2665 8.26506 10.1378 8.72294 10.6058 8.8933L10.6884 8.92435L10.6514 9.00294C10.6433 9.02035 10.4599 9.43588 10.8919 9.67212H11.8284V8.9413C11.4953 8.9013 11.3546 8.63824 11.3181 8.45188C11.1631 8.426 11.0436 8.36059 10.9615 8.25377C10.7647 7.99965 10.9337 7.76671 10.9361 7.754C10.9356 7.75588 10.9361 8.00341 11.0916 8.15682C11.1689 8.23024 11.2601 8.28765 11.3988 8.30035L11.4665 8.30647L11.4722 8.37471C11.4737 8.3893 11.5106 8.72482 11.8284 8.77753L11.8279 7.28577C11.8279 7.05424 11.8965 6.82177 11.9791 6.60718H10.0817V6.60765ZM7.56021 7.29141L7.53525 8.24106L7.64565 8.258L7.91445 7.34647L7.77765 7.066L7.56069 7.29141H7.56021ZM8.14293 10.8086C8.13555 10.8084 8.12829 10.8067 8.12161 10.8036C8.11492 10.8005 8.10894 10.7961 8.10404 10.7907C8.09914 10.7853 8.09543 10.7789 8.09312 10.7721C8.09081 10.7652 8.08996 10.7579 8.09061 10.7507C8.09104 10.7436 8.09291 10.7366 8.09612 10.7302C8.09934 10.7238 8.10383 10.718 8.10933 10.7134C8.11483 10.7087 8.12123 10.7051 8.12815 10.7029C8.13508 10.7006 8.14239 10.6998 8.14965 10.7004C8.18133 10.7018 8.20341 10.7286 8.20245 10.7578C8.20135 10.7722 8.19448 10.7856 8.18334 10.7952C8.17219 10.8047 8.15768 10.8095 8.14293 10.8086ZM10.5247 11.6495C10.5329 11.6495 10.5425 11.6505 10.5511 11.6528C10.7191 11.6999 10.7609 12.2919 11.0541 12.3446C11.0829 12.3507 11.1098 12.3521 11.1329 12.3521C11.2178 12.3521 11.2682 12.3168 11.3229 12.2533C11.3229 12.2533 11.1751 12.026 11.0647 11.8721C10.9183 11.6707 10.8045 11.4274 10.5314 11.4274C10.5247 11.4274 10.517 11.4274 10.5098 11.4284C10.4578 11.4304 10.4075 11.4471 10.3649 11.4764C10.2737 11.4172 10.167 11.3853 10.0577 11.3846C9.88725 11.3846 9.75381 11.4618 9.68709 11.4618H9.68469L9.07509 11.4025C8.97957 11.3931 8.90421 11.2989 8.87685 11.2622L8.86629 11.2462C8.86629 11.2298 8.86629 11.2133 8.86533 11.1987C8.84469 10.7088 8.45877 10.4994 8.32101 10.4956C8.32101 10.4956 8.33733 10.4025 8.30037 10.3672L8.16597 10.5272L7.72437 10.3098L8.03925 10.6712L7.77285 10.9653C7.73925 10.9987 7.74357 11.0439 7.75749 11.0632L7.87269 11.1629L8.01861 11.0759C8.02581 11.0707 8.03925 11.0688 8.05557 11.0688C8.09589 11.0688 8.15637 11.0792 8.21061 11.0792C8.27061 11.0792 8.32197 11.0669 8.32821 11.0119C8.30997 11.1935 8.13813 11.5093 8.25093 11.7573L8.33445 11.9446L7.79541 11.8684L7.54293 12.2867C7.46517 12.426 7.45269 12.5766 7.52757 12.6585L7.62213 12.7747C7.62213 12.7747 7.75461 12.6368 7.78389 12.546L7.74117 12.4999C7.70517 12.4608 7.70709 12.426 7.72917 12.3841L7.88757 12.1262L8.52357 12.2735L8.55717 12.2171C8.60037 12.1465 8.66277 12.1258 8.73093 12.1258C8.75925 12.1258 8.78805 12.1291 8.81781 12.1338C8.93589 12.1568 9.13029 12.1874 9.32469 12.1874C9.53829 12.1874 9.74997 12.1498 9.86277 12.026C10.0932 12.3615 10.5607 12.4147 10.5237 12.5855L10.4009 13.1606C10.4825 13.1568 10.5607 13.1516 10.6351 13.1418L10.7522 12.5436C10.7617 12.4929 10.77 12.4419 10.7772 12.3907C10.7321 12.3455 10.6231 12.2509 10.5612 12.1356C10.4791 11.9799 10.5237 11.8985 10.4469 11.6961C10.4469 11.6961 10.4709 11.6491 10.5247 11.6491V11.6495Z" fill="#FFFFFE"/>
<path fill-rule="evenodd" clip-rule="evenodd" d="M7.2735 12.193C7.2735 12.193 7.4847 12.1083 7.5039 12.0471L7.4751 11.9784C7.45542 11.9333 7.45782 11.8843 7.4967 11.858L7.72422 11.7031L8.10486 11.7751C8.10486 11.7751 8.03574 11.6904 8.04246 11.5775L7.67958 11.5022L7.33686 11.7069C7.27706 11.7504 7.23383 11.8122 7.21408 11.8826C7.19434 11.953 7.1992 12.0278 7.2279 12.0951L7.2735 12.1935V12.193ZM9.96486 13.1681C10.0325 13.1653 10.1084 13.1643 10.1905 13.1643C10.1905 13.1643 10.3863 12.602 10.3973 12.5841C10.2519 12.5176 10.1099 12.4439 9.97206 12.3634C10.0301 12.449 10.1713 12.5464 10.1434 12.6217L9.96486 13.1681Z" fill="#FFFFFE"/>
<path fill-rule="evenodd" clip-rule="evenodd" d="M11.8279 9.83283H6.41586V11.8324C6.41586 12.6502 7.01827 13.1618 7.90771 13.1618C8.65026 13.1618 8.8461 13.19 9.1221 13.4597C9.31266 13.2728 9.47011 13.2037 9.79411 13.1773L9.8013 13.1467L9.9717 12.6286C9.9621 12.6168 9.6837 12.3058 9.6837 12.3058C9.5733 12.342 9.48018 12.3481 9.3237 12.3481C9.16386 12.3481 8.9829 12.3293 8.78658 12.2935C8.76818 12.2893 8.74934 12.2871 8.73042 12.287C8.70642 12.287 8.70498 12.2888 8.69826 12.3006L8.66466 12.3557L8.60227 12.4564L8.48563 12.4295L7.96626 12.3095L7.89474 12.4248L7.90579 12.4375L7.96866 12.5058L7.94083 12.5952C7.90243 12.7114 7.77859 12.8474 7.74067 12.8851L7.61107 13.0215L7.4925 12.8752L7.40371 12.7655C7.31011 12.663 7.2885 12.5058 7.34131 12.3411C7.33976 12.3422 7.33793 12.3428 7.33603 12.343L7.18963 12.4027L7.12387 12.2615L7.0773 12.1622C7.03261 12.0607 7.02456 11.9472 7.05449 11.8405C7.08442 11.7338 7.15054 11.6403 7.24195 11.5754L7.65955 11.3434L8.05794 11.4201C8.06754 11.3825 8.08194 11.2488 8.09298 11.2145C8.0853 11.2135 8.0781 11.2121 8.07042 11.2121L7.84099 11.2959L7.62019 11.1462C7.62019 11.1462 7.53378 11.0644 7.61203 10.9825L7.82563 10.6639L7.28322 9.99566L8.11698 10.3317L8.17267 10.2644L8.28498 10.1317L8.41267 10.2512C8.44624 10.2834 8.46958 10.3244 8.47986 10.3693C8.7093 10.4573 9.12115 10.7166 9.15762 11.1382L9.02899 11.1886V11.1919C9.05827 11.2262 9.08274 11.2404 9.09042 11.2418L9.68563 11.2992C9.70099 11.2964 9.71922 11.2898 9.74034 11.2841C9.81474 11.2592 9.92562 11.223 10.0571 11.223C10.1647 11.223 10.2683 11.2474 10.3677 11.2935C10.4047 11.2794 10.4493 11.2695 10.5021 11.2662L10.5309 11.2653C10.8491 11.2653 11.0075 11.4992 11.1347 11.686C11.1559 11.7185 11.177 11.7486 11.1991 11.7787C11.3104 11.9331 11.4559 12.1585 11.4616 12.1684L11.5274 12.2686L11.4467 12.3608C11.3853 12.4314 11.2917 12.5138 11.1323 12.5138C11.0962 12.5135 11.0602 12.5099 11.0248 12.503C10.9922 12.4968 10.9603 12.4872 10.9298 12.4742C10.9249 12.5075 10.9193 12.5406 10.913 12.5735L10.8088 13.1086C11.4328 12.958 11.8293 12.495 11.8293 11.8324L11.8279 9.83283ZM6.41586 9.67189H10.6255C10.4152 9.45825 10.4186 9.1886 10.4719 9.01307C10.4151 8.98633 10.3623 8.95213 10.3149 8.91142C10.1503 9.03048 9.64818 9.38954 9.51714 9.47989L9.48882 9.49872L7.83666 9.20507H7.80306C7.7637 9.20507 7.70562 9.20366 7.64226 9.19566C7.63548 9.2254 7.62006 9.25258 7.59785 9.2739C7.57564 9.29523 7.5476 9.30979 7.51712 9.31581C7.48665 9.32184 7.45505 9.31907 7.42615 9.30785C7.39724 9.29663 7.37227 9.27744 7.35426 9.2526C7.34161 9.23564 7.33255 9.21637 7.3276 9.19592C7.32266 9.17547 7.32193 9.15427 7.32546 9.13354L7.3317 9.09825C7.16178 8.9806 7.00386 8.71707 7.07394 8.43942L7.08066 8.41025L7.10466 8.3933C7.12889 8.3771 7.15387 8.36202 7.17955 8.34813L7.05955 8.3293C7.03823 8.32572 7.01919 8.31413 7.00646 8.29699C6.99373 8.27985 6.98832 8.25852 6.99138 8.23754C6.99906 8.1933 7.04083 8.16225 7.08547 8.17025L7.37107 8.21448L7.39746 7.22577L7.82275 6.78342L8.08866 7.3326L7.80834 8.28413L8.06083 8.32319C8.08239 8.32665 8.10167 8.33836 8.11444 8.35573C8.12722 8.37311 8.13245 8.39474 8.12899 8.41589C8.12589 8.43463 8.11606 8.45167 8.10127 8.46393C8.08648 8.47618 8.06771 8.48285 8.04834 8.48272L8.03538 8.48225L7.82947 8.4493C7.83235 8.45589 7.83619 8.45919 7.83907 8.46577C7.86198 8.50474 7.89648 8.53593 7.93795 8.55519L9.19698 8.57542C9.25026 8.52413 9.38226 8.39707 9.51858 8.26248C9.39993 8.21978 9.29576 8.14552 9.21776 8.04802C9.13976 7.95051 9.09101 7.83363 9.07698 7.71048C8.90418 7.63801 8.78418 7.52977 8.71794 7.3886C8.6373 7.21354 8.66611 7.03848 8.68771 6.9533C8.51971 6.89354 8.34307 6.78342 8.16259 6.60742H6.26562C6.34722 6.82201 6.41586 7.05448 6.41586 7.28554V9.67142V9.67189Z" fill="#FFE52B"/>
<path fill-rule="evenodd" clip-rule="evenodd" d="M8.14929 10.7001C8.14199 10.6995 8.13464 10.7004 8.12768 10.7026C8.12073 10.7049 8.11431 10.7085 8.1088 10.7132C8.10329 10.718 8.09881 10.7238 8.09563 10.7302C8.09244 10.7367 8.09061 10.7437 8.09025 10.7509C8.08966 10.7581 8.09057 10.7653 8.09291 10.7721C8.09525 10.7789 8.09898 10.7852 8.10387 10.7906C8.10876 10.796 8.11471 10.8003 8.12137 10.8033C8.12802 10.8064 8.13523 10.8081 8.14257 10.8083C8.15724 10.8092 8.17169 10.8045 8.18282 10.795C8.19394 10.7856 8.20086 10.7723 8.20209 10.758C8.20288 10.7434 8.19777 10.7292 8.18787 10.7183C8.17798 10.7075 8.16411 10.7009 8.14929 10.7001ZM10.6578 14.893L10.4106 14.2248C10.7048 14.1368 11.2103 13.9476 11.4373 13.822L11.2861 14.3081L11.7983 14.4751C11.4882 14.6276 11.1128 14.7702 10.6578 14.8925V14.893ZM9.12273 15.493C8.52705 15.493 7.84737 15.3584 7.64673 15.2883L7.95105 14.4798C8.20353 14.5523 8.72865 14.629 9.11025 14.6267H9.13425C9.51537 14.629 10.04 14.5518 10.2939 14.4798L10.5978 15.2883C10.3971 15.3589 9.71745 15.493 9.12273 15.493ZM6.44625 14.4751L6.95889 14.3081L6.80721 13.822C7.03329 13.9476 7.54017 14.1373 7.83345 14.2248L7.58625 14.893C7.13265 14.7707 6.75585 14.6276 6.44625 14.4751ZM11.8213 14.3269L11.5093 14.2093L11.5957 13.893L11.6903 13.5481C11.6903 13.5481 11.1383 13.8427 10.3592 14.0634C10.1384 14.1255 9.97137 14.1542 9.97137 14.1542V14.389C9.97137 14.389 9.55473 14.4596 9.13425 14.4596H9.11025C8.68881 14.4596 8.27313 14.389 8.27313 14.389V14.1537C8.27313 14.1537 8.10561 14.1255 7.88481 14.0634C7.10673 13.8422 6.55473 13.5481 6.55473 13.5481L6.64785 13.893L6.73617 14.2093L6.42321 14.3269L6.07617 14.454C6.47361 14.6427 7.02465 14.917 7.52865 15.0525L7.41009 15.3716C7.41009 15.3716 8.04945 15.6577 9.11457 15.6605V15.661H9.12897V15.6605C10.1955 15.6577 10.8349 15.3716 10.8349 15.3716L10.7149 15.0525C11.2194 14.917 11.7714 14.6431 12.1669 14.454L11.8213 14.3269ZM7.82049 1.45302L7.96209 1.46807L8.02305 1.34102L8.20161 0.965957L8.53281 1.13443L8.66145 1.1989L9.12129 0.750898L9.47985 1.09913L9.58257 1.1989L9.71121 1.13443L10.0405 0.965957L10.2219 1.34102L10.2819 1.46807L10.4235 1.45302L10.5589 1.43749C10.497 1.57443 10.4514 1.70478 10.4183 1.81302C10.0607 1.61678 9.59601 1.50572 9.12177 1.50572C8.64945 1.50572 8.18481 1.61678 7.82577 1.81302C7.78705 1.68511 7.74024 1.55969 7.68561 1.43749L7.82001 1.45302H7.82049ZM9.12129 1.70102C9.75633 1.70102 10.2637 1.90807 10.5445 2.12784C10.5445 2.12784 10.628 1.63513 10.9122 1.20078L10.401 1.25725L10.1336 0.699604L9.62001 0.959839L9.12129 0.476074L8.62449 0.959839L8.10993 0.699604L7.84305 1.25772L7.33185 1.20031C7.61649 1.63513 7.69953 2.12737 7.69953 2.12737C7.98177 1.9076 8.48769 1.70102 9.12129 1.70102ZM17.1651 9.98855C17.1651 9.98855 16.9443 10.3664 16.4375 10.3664H16.4312C15.8226 10.3627 15.5768 9.99796 15.5768 9.99796C15.5768 9.99796 15.6123 10.4723 15.3935 11.1128C15.1295 11.8845 15.3954 12.4351 15.3954 12.4351C15.3954 12.4351 15.2533 12.4733 15.0896 12.4733C15.0272 12.4733 14.9619 12.4671 14.9 12.4511C14.3917 12.333 14.265 11.8784 14.265 11.8784C14.265 11.8784 14.312 13.413 12.4895 13.413H12.4751C12.4751 13.413 12.6359 13.1989 12.6834 12.5815C12.7698 11.4427 13.5551 11.286 13.5551 11.286C13.5551 11.286 13.136 11.2342 12.9541 11.0747C12.6704 10.822 12.6901 10.5297 12.6901 10.5297C13.3314 10.5208 13.7519 10.3067 14.072 9.9429C14.2783 9.71017 14.4175 9.42766 14.4752 9.12455C14.4752 9.12455 14.1306 9.43184 13.4639 9.43184C13.4053 9.43184 13.3429 9.42902 13.2786 9.4229C12.9627 9.39796 12.7448 9.20078 12.7448 9.20078C13.4389 8.7636 13.9256 8.00078 13.4941 6.85255C13.1485 5.93255 12.3171 5.24502 11.4805 4.72737C11.2021 4.55654 11.0466 4.36643 11.0466 4.20313C11.0466 3.81866 11.6034 3.80643 11.8319 3.54807C12.0959 3.24784 11.9303 2.76078 11.7018 2.4676C11.7018 2.4676 11.7786 2.45207 11.9 2.45207C12.141 2.45207 12.5576 2.51137 12.9003 2.86054C13.3549 3.32266 13.1663 3.82619 13.1663 3.82619L13.2882 3.84972C13.3611 3.86431 13.4336 3.8676 13.509 3.87137L13.5579 3.87184C14.2189 3.87184 14.5141 3.19325 14.5141 3.19325C14.5141 3.19325 15.2168 4.04219 14.1824 4.7076C14.0043 4.82102 13.9256 4.9269 13.9463 5.0389L13.9626 5.11278L14.036 5.12549C14.7858 5.32549 15.1655 5.83372 15.6287 6.41066C16.3323 7.28925 17.3279 7.31749 17.4503 7.31749H17.4637C17.4637 7.31749 17.2367 8.02196 16.5671 8.02196C16.556 8.02196 16.5464 8.02196 16.5354 8.02102C16.2282 8.01019 16.0698 7.89443 16.0698 7.89443C16.0698 7.89443 15.9503 9.49302 17.1651 9.98855ZM16.5671 8.23749C17.3879 8.23749 17.6624 7.41725 17.6739 7.38243L17.7651 7.09302L17.4579 7.10243H17.457C17.348 7.10243 16.4427 7.0789 15.801 6.27749L15.74 6.20313C15.3205 5.67937 14.9226 5.18102 14.2112 4.95372C14.2396 4.92932 14.27 4.90713 14.3019 4.88737C14.6792 4.6436 14.8991 4.3476 14.9538 4.0036C15.0349 3.48643 14.6984 3.07419 14.684 3.05725L14.4555 2.7796L14.3125 3.10902C14.3029 3.12925 14.0629 3.65631 13.5579 3.65631H13.5205C13.4859 3.6549 13.4528 3.65349 13.4202 3.65066C13.4379 3.41537 13.3943 3.05207 13.0583 2.71043C12.6546 2.2996 12.1592 2.23796 11.9 2.23796C11.7618 2.23796 11.6696 2.2549 11.6595 2.25584L11.3144 2.32313L11.5271 2.59843C11.6941 2.81113 11.8458 3.20313 11.6663 3.40784C11.6087 3.47372 11.4906 3.52596 11.3778 3.57913C11.1455 3.68407 10.8277 3.8309 10.8277 4.20313C10.8277 4.44407 11.0183 4.69678 11.3639 4.9109C12.3853 5.54196 13.016 6.20078 13.2882 6.92784C13.7096 8.04596 13.16 8.68407 12.6258 9.02007L12.3867 9.17113L12.5965 9.36031C12.6248 9.38478 12.8807 9.60643 13.2594 9.63843C13.3314 9.64313 13.4 9.6469 13.4643 9.6469C13.7067 9.6469 13.9136 9.60925 14.0816 9.55937C14.0314 9.64529 13.9729 9.72629 13.9069 9.80125C13.6021 10.1485 13.2267 10.3067 12.6867 10.3151L12.4861 10.318L12.4707 10.5156C12.4688 10.5556 12.4539 10.9222 12.8067 11.2337C12.861 11.2817 12.9263 11.3217 12.9949 11.3537C12.7549 11.5655 12.512 11.9344 12.465 12.566C12.4251 13.093 12.297 13.2883 12.2955 13.2907L12.0738 13.6229L12.4746 13.6281C13.1365 13.6281 13.6434 13.4493 13.9943 13.0935C14.176 12.9066 14.3116 12.6814 14.3907 12.4351C14.5856 12.5981 14.8335 12.6875 15.0896 12.6874C15.2768 12.6874 15.4333 12.6483 15.4506 12.6445L15.7064 12.5777L15.5936 12.3434C15.585 12.3245 15.3719 11.854 15.6013 11.1824C15.7002 10.8921 15.7506 10.6323 15.7751 10.4295C15.9363 10.5123 16.1519 10.5801 16.4307 10.581C17.0643 10.581 17.3432 10.1165 17.3557 10.0973L17.4805 9.88361L17.2491 9.79043C16.4946 9.48266 16.3275 8.65631 16.2939 8.20925C16.3626 8.22196 16.4403 8.23372 16.5282 8.23608L16.5671 8.23749Z" fill="#1A1919"/>
<path fill-rule="evenodd" clip-rule="evenodd" d="M15.6451 4.72933C15.7977 4.72933 15.9763 4.78063 16.1443 4.95145C16.6732 5.47851 17.1652 5.50815 17.1652 5.50815C17.0759 5.70251 16.8167 5.87333 16.5484 5.87333C16.4865 5.87333 16.4236 5.86392 16.3627 5.84274C15.9983 5.72227 15.8683 5.18627 15.2294 4.85263C15.2294 4.85263 15.407 4.72933 15.6451 4.72933ZM15.1252 5.04274C15.431 5.20274 15.6095 5.4178 15.766 5.60792C15.9196 5.7938 16.0651 5.97262 16.294 6.04698C16.3747 6.07427 16.4606 6.08745 16.5484 6.08745C16.8907 6.08745 17.2348 5.88133 17.3654 5.59615L17.4964 5.31098L17.1791 5.29215C17.1643 5.29215 16.7558 5.25498 16.3017 4.79945C16.1145 4.61215 15.8884 4.51427 15.6451 4.51427C15.3475 4.51427 15.1267 4.66015 15.1027 4.67521L14.8108 4.8771L15.1252 5.04274ZM15.2687 7.89027V7.9011C15.0844 6.44133 14.0054 5.38721 12.8039 4.74627C12.6935 4.68792 12.5903 4.63804 12.491 4.59098C12.8563 4.64651 13.4452 4.6531 13.9003 4.26627C13.9003 4.26627 13.2043 4.76839 11.7801 4.31192C12.1737 4.56321 12.9403 4.91804 13.6401 5.49215C15.3887 7.0018 14.1379 8.4738 14.1379 8.4738C14.7667 7.82957 14.7926 7.13968 14.6073 6.57592C14.9385 7.1171 15.1497 7.77357 15.1171 8.58345C15.0691 9.74345 14.4196 10.7467 13.7366 11.5529C13.4083 11.9434 13.3353 12.4244 13.3353 12.4244C13.3353 12.4244 13.4678 12.0004 13.8475 11.5642C14.5795 10.7218 15.2059 9.84792 15.2875 8.58768C15.3633 8.81686 15.6753 9.45215 16.1697 9.69168C16.1697 9.69168 15.5481 9.32368 15.2687 7.89027ZM5.75513 13.4131C3.93257 13.4131 3.97913 11.8785 3.97913 11.8785C3.97913 11.8785 3.85145 12.3331 3.34409 12.4512C3.28212 12.4665 3.2184 12.4739 3.15449 12.4733C2.99129 12.4733 2.84921 12.4357 2.84921 12.4357C2.84921 12.4357 3.11465 11.8842 2.85017 11.1129C2.63225 10.4729 2.66777 9.99804 2.66777 9.99804C2.66777 9.99804 2.42249 10.3627 1.81337 10.3665H1.80713C1.30073 10.3665 1.07945 9.98862 1.07945 9.98862C2.29385 9.49309 2.17481 7.89451 2.17481 7.89451C2.17481 7.89451 2.01641 8.01027 1.70921 8.02157H1.67705C1.00697 8.02157 0.779931 7.31757 0.779931 7.31757H0.793851C0.917691 7.31757 1.91177 7.28933 2.61497 6.41074C3.07817 5.83333 3.45833 5.32557 4.20665 5.12604L4.28201 5.11286L4.29785 5.03898C4.31897 4.92698 4.24025 4.8211 4.06265 4.70768C3.02825 4.04227 3.73049 3.1938 3.73049 3.1938C3.73049 3.1938 4.02425 3.87192 4.68713 3.87192L4.73513 3.87145C4.81001 3.86768 4.88345 3.86439 4.95593 3.84933L5.07785 3.82627C5.07785 3.82627 4.88873 3.32274 5.34473 2.86063C5.68745 2.51145 6.10361 2.45215 6.34409 2.45215C6.46649 2.45215 6.54185 2.46768 6.54185 2.46768C6.31433 2.76086 6.14921 3.24792 6.41225 3.54815C6.64073 3.80651 7.19705 3.81874 7.19705 4.20321C7.19705 4.36651 7.04201 4.55662 6.76409 4.72745C5.92649 5.2451 5.09561 5.93215 4.75001 6.8531C4.31897 8.00133 4.80569 8.76368 5.50025 9.20133C5.50025 9.20133 5.28185 9.39804 4.96601 9.42298C4.90411 9.42883 4.84196 9.43181 4.77977 9.43192C4.11353 9.43192 3.76889 9.1251 3.76889 9.1251C3.76889 9.1251 3.82649 9.54909 4.17113 9.94345C4.49273 10.3067 4.91273 10.5209 5.55353 10.5298C5.55353 10.5298 5.57417 10.8216 5.29049 11.0747C5.10857 11.2347 4.68953 11.2865 4.68953 11.2865C4.68953 11.2865 5.47529 11.4427 5.56169 12.5816C5.60873 13.199 5.76809 13.4131 5.76809 13.4131H5.75513ZM5.94857 13.2907C5.94809 13.2884 5.82089 13.0931 5.78009 12.566C5.73209 11.9345 5.48921 11.5656 5.24873 11.3538C5.31833 11.3218 5.38313 11.2818 5.43689 11.2338C5.78969 10.9223 5.77481 10.5562 5.77241 10.5157L5.75897 10.318L5.55689 10.3152C5.01833 10.3067 4.64249 10.1486 4.33769 9.80133C4.27199 9.72614 4.2135 9.64517 4.16297 9.55945C4.33097 9.6098 4.53641 9.64698 4.77977 9.64698C4.84457 9.64698 4.91273 9.64321 4.98425 9.63851C5.22924 9.61452 5.46088 9.51764 5.64809 9.36086L5.85785 9.17121L5.61881 9.02062C5.08313 8.68415 4.53545 8.04651 4.95641 6.92792C5.22857 6.20086 5.85785 5.54251 6.88121 4.91098C7.22681 4.69686 7.41593 4.44415 7.41593 4.20321C7.41593 3.83098 7.09913 3.68415 6.86681 3.57921C6.75353 3.52604 6.63545 3.47333 6.57833 3.40792C6.39833 3.20321 6.54953 2.81121 6.71705 2.59851L6.93113 2.32321L6.58409 2.25592C6.57449 2.25451 6.48329 2.23804 6.34409 2.23804C6.08537 2.23804 5.59049 2.29968 5.18729 2.71051C4.85081 3.05215 4.80665 3.41592 4.82393 3.65074C4.79129 3.65357 4.75865 3.65498 4.72409 3.65639H4.68713C4.18025 3.65639 3.94121 3.12933 3.93209 3.1091L3.78953 2.77968L3.55913 3.05733C3.54617 3.07427 3.20873 3.48651 3.29129 4.00368C3.34553 4.34721 3.56537 4.64368 3.94265 4.88745C3.98393 4.91333 4.01225 4.93545 4.03289 4.9538C3.32057 5.1811 2.92361 5.67945 2.50409 6.20321L2.44361 6.27757C1.80233 7.07898 0.894651 7.10298 0.786171 7.10298L0.477051 7.09357L0.571131 7.38251C0.582171 7.41733 0.855771 8.23757 1.67705 8.23757L1.71641 8.23615C1.80329 8.2338 1.88153 8.22204 1.95065 8.20886C1.91705 8.65592 1.74905 9.48274 0.994491 9.79004L0.764091 9.88415L0.888891 10.0973C0.900411 10.1166 1.18073 10.5811 1.81529 10.5811C2.04241 10.5833 2.26671 10.5317 2.46905 10.4305C2.49353 10.6329 2.54441 10.8922 2.64329 11.1825C2.87273 11.8536 2.65913 12.3246 2.65097 12.3434L2.53769 12.5778L2.79353 12.6442C2.81081 12.6489 2.96825 12.6874 3.15449 12.6874C3.41074 12.6881 3.65872 12.5986 3.85337 12.4352C3.92297 12.6456 4.04249 12.8832 4.24937 13.0936C4.60169 13.4489 5.10809 13.6282 5.76953 13.6282L6.17033 13.623L5.94857 13.2907Z" fill="#1A1919"/>
<path fill-rule="evenodd" clip-rule="evenodd" d="M2.09926 4.9515C2.26822 4.78067 2.4463 4.72891 2.5999 4.72891C2.83606 4.72891 3.0151 4.85267 3.0151 4.85267C2.3767 5.18679 2.24518 5.72232 1.88038 5.84326C1.82097 5.86345 1.75846 5.87348 1.69558 5.87291C1.42726 5.87291 1.16758 5.70256 1.07926 5.5082C1.07926 5.5082 1.57078 5.47856 2.09926 4.9515ZM1.69558 6.0875C1.78342 6.0875 1.86934 6.07432 1.95094 6.04703C2.17942 5.97267 2.32534 5.79432 2.47894 5.60797C2.6359 5.41832 2.81254 5.20326 3.11878 5.04326L3.43366 4.87714L3.14086 4.67479C3.11686 4.6602 2.8975 4.51479 2.5999 4.51479C2.35606 4.51479 2.1295 4.6122 1.94278 4.7995C1.48822 5.2555 1.0807 5.2922 1.06582 5.29267L0.749023 5.31103L0.878623 5.59667C1.01014 5.88138 1.35382 6.0875 1.69558 6.0875ZM3.12742 8.5835C3.09382 7.77361 3.30502 7.11714 3.63622 6.57597C3.4519 7.13973 3.47686 7.82961 4.10662 8.47432C4.10662 8.47432 2.85478 7.00138 4.60438 5.49267C5.30422 4.91808 6.06982 4.56326 6.46342 4.31197C5.03974 4.76844 4.34422 4.26585 4.34422 4.26585C4.79878 4.65314 5.38774 4.64703 5.75302 4.59056C5.65414 4.63808 5.55046 4.6875 5.44006 4.74632C4.23862 5.38679 3.16006 6.44138 2.97478 7.90114V7.89032C2.6959 9.32373 2.07478 9.69173 2.07478 9.69173C2.56918 9.45173 2.88022 8.81644 2.95606 8.58773C3.03862 9.84797 3.66454 10.7223 4.39606 11.5642C4.77622 12.0004 4.90966 12.4244 4.90966 12.4244C4.90966 12.4244 4.83574 11.944 4.50598 11.5529C3.82438 10.7468 3.17542 9.7435 3.12742 8.5835ZM8.7103 5.62961V5.9195C8.81206 5.79761 9.0079 5.82256 9.0079 5.82256V6.23997C9.0079 6.23997 9.00167 6.44514 8.92727 6.53409H9.35254C9.27862 6.44514 9.27142 6.23997 9.27142 6.23997V5.82256C9.27142 5.82256 9.46822 5.79761 9.56903 5.9195V5.62961H8.70982H8.7103ZM8.5279 3.91291C8.66374 4.01879 8.74246 4.03667 8.74486 4.03808L8.79766 4.06208V3.78961L8.29846 3.5835C8.29846 3.5835 8.30278 3.74161 8.5279 3.91291ZM9.71542 3.91291C9.94102 3.74161 9.94582 3.5835 9.94582 3.5835L9.44615 3.78961V4.06256L9.49895 4.03808C9.50134 4.03667 9.57958 4.01879 9.71542 3.91291Z" fill="#1A1919"/>
<path fill-rule="evenodd" clip-rule="evenodd" d="M9.12213 3.18697L7.91877 2.72015C8.02101 2.48203 8.49285 2.27968 9.12213 2.27921C9.75189 2.27968 10.2237 2.48203 10.326 2.72015L9.12213 3.18697ZM10.0193 4.65003L9.21045 5.06886V3.37285L10.3082 3.00674L10.0193 4.64909V4.65003ZM10.5204 5.09991L10.89 5.31074H10.8953L10.9884 5.36391C10.7796 5.42039 10.6197 5.52344 10.4858 5.65803L10.4714 5.67215C10.4398 5.70519 10.4096 5.73941 10.3807 5.77474L10.3639 5.79639C10.3351 5.83262 10.3077 5.8698 10.2823 5.90839L10.2684 5.92768C10.2372 5.97428 10.2076 6.02183 10.1796 6.07027C9.91557 6.51592 9.49557 6.78227 9.12213 6.78321C8.74869 6.78227 8.32821 6.51592 8.06517 6.07027C8.03721 6.02274 8.00792 5.97598 7.97733 5.93003L7.96005 5.90509C7.93497 5.86875 7.90904 5.83298 7.88229 5.7978C7.87557 5.78839 7.86933 5.78133 7.86261 5.77333C7.83443 5.739 7.80514 5.70558 7.77477 5.67309C7.76853 5.66839 7.76421 5.66227 7.75845 5.65709C7.62131 5.51629 7.44753 5.41492 7.25589 5.36391L7.34997 5.31074H7.35381L7.72485 5.09991L8.10453 4.8858L9.12021 5.42886L9.12213 5.42697L9.12501 5.42886L10.1402 4.8858L10.5204 5.09991ZM11.9796 6.60768C11.8965 6.82227 11.8279 7.05474 11.8279 7.2858L11.8289 8.77756C11.5116 8.7258 11.4737 8.3898 11.4727 8.37521L11.4669 8.30697L11.3983 8.30086C11.2819 8.2908 11.1731 8.23982 11.0921 8.15733C10.9361 8.00439 10.9361 7.75686 10.9361 7.7545C10.9341 7.76721 10.7652 7.99921 10.961 8.25333C11.0436 8.36062 11.1636 8.42697 11.3181 8.45286C11.3546 8.63874 11.4957 8.9018 11.8289 8.94227V9.67168H10.8924C10.4604 9.43592 10.6433 9.02086 10.6519 9.00297L10.6884 8.92392L10.6058 8.89333C10.1378 8.72298 10.2669 8.26462 10.2732 8.24486L10.2924 8.17803L10.2281 8.14886C9.84213 7.97286 9.89445 7.49944 9.89973 7.47968C9.78069 7.57427 9.73797 7.76674 9.81957 7.95639C9.77541 8.00627 9.71589 8.06603 9.65109 8.13192C9.53834 8.10778 9.43683 8.04792 9.36222 7.9616C9.28762 7.87527 9.24407 7.76727 9.23829 7.65427L9.23781 7.59874L9.18501 7.57897C9.02901 7.5225 8.92197 7.43686 8.86869 7.3225C8.80965 7.19592 8.83029 7.06368 8.84661 6.99921C8.93632 7.01745 9.02764 7.0269 9.11925 7.02744H9.12549C9.17205 7.02744 9.21765 7.02462 9.26277 7.02039C9.51237 6.99591 9.79077 6.89097 10.0817 6.60768H11.9796ZM10.8093 13.1089L10.914 12.5738L10.9308 12.475C10.9954 12.4998 11.064 12.513 11.1333 12.514C11.2927 12.514 11.3858 12.4312 11.4477 12.3611L11.5274 12.2693L11.4621 12.1686C11.4564 12.1587 11.3109 11.9333 11.1996 11.779C11.1774 11.7485 11.1562 11.7174 11.1357 11.6858C11.0085 11.4994 10.8497 11.2656 10.5309 11.2656L10.5026 11.2665C10.4567 11.2689 10.4114 11.278 10.3682 11.2933C10.2712 11.2479 10.1652 11.2241 10.0577 11.2237C9.94951 11.2262 9.84258 11.2466 9.74133 11.2839C9.72021 11.29 9.70101 11.2966 9.68613 11.2994L9.09093 11.242C9.08325 11.2402 9.05925 11.226 9.02949 11.1922V11.1889L9.15813 11.1385C9.12213 10.7169 8.70981 10.4576 8.48037 10.3696C8.4702 10.3245 8.44685 10.2833 8.41317 10.251L8.28549 10.1319L8.17317 10.2642L8.11797 10.3319L7.28373 9.99545L7.82613 10.6642L7.61253 10.9827C7.53381 11.0642 7.62069 11.1465 7.62069 11.1465L7.84149 11.2962L8.07093 11.2119C8.07861 11.2119 8.08533 11.2138 8.09349 11.2147C8.08245 11.2491 8.06805 11.3832 8.05845 11.4204L7.66053 11.3437L7.24293 11.5757C7.02741 11.731 6.99813 11.987 7.07829 12.1625L7.12437 12.2623L7.19013 12.403L7.33653 12.3437C7.33893 12.3427 7.34085 12.3423 7.34229 12.3409C7.28949 12.506 7.31109 12.6627 7.40469 12.7658L7.49349 12.8754L7.61157 13.0223L7.74117 12.8853C7.77957 12.8477 7.90341 12.7117 7.94133 12.595L7.96917 12.506L7.90629 12.4378L7.89573 12.4251L7.96677 12.3098L8.48613 12.4303L8.60325 12.4566L8.66565 12.3554L8.69925 12.3009C8.70549 12.2891 8.70693 12.2872 8.73093 12.2872C8.74965 12.2872 8.76789 12.2891 8.78757 12.2938C8.96468 12.3281 9.14465 12.3462 9.32517 12.3479C9.48021 12.3479 9.57381 12.3423 9.68421 12.306C9.68421 12.306 9.96309 12.6166 9.97269 12.6289L9.80181 13.1465L9.79413 13.1776C9.47109 13.2034 9.31365 13.2731 9.12309 13.4599C8.84661 13.1907 8.65125 13.162 7.90869 13.162C7.01925 13.162 6.41637 12.6505 6.41637 11.8322V9.83309H11.8289L11.8298 11.8322C11.8298 12.4952 11.4333 12.9578 10.8093 13.1089ZM7.47573 11.9785L7.50405 12.0477C7.48485 12.1079 7.27365 12.1936 7.27365 12.1936L7.22853 12.0952C7.19971 12.0278 7.19479 11.9529 7.21454 11.8824C7.2343 11.8119 7.27759 11.75 7.33749 11.7065L7.67973 11.5018L8.04309 11.5771C8.03589 11.6905 8.10501 11.7752 8.10501 11.7752L7.72485 11.7037L7.49685 11.858C7.45845 11.8844 7.45557 11.9333 7.47573 11.9785ZM10.7517 12.5432L10.6351 13.1413C10.5602 13.1517 10.4815 13.1573 10.4009 13.1602L10.5237 12.586C10.5602 12.4147 10.0937 12.3616 9.86277 12.026C9.74997 12.1503 9.53829 12.1874 9.32517 12.1874C9.13029 12.1874 8.93637 12.1569 8.81781 12.1338C8.78927 12.1289 8.76038 12.1263 8.73141 12.1258C8.66277 12.1258 8.60085 12.1465 8.55765 12.2176L8.52405 12.274L7.88757 12.1267L7.72917 12.3842C7.70709 12.426 7.70517 12.4609 7.74117 12.4999L7.78437 12.546C7.75461 12.6369 7.62213 12.7747 7.62213 12.7747L7.52757 12.6585C7.45269 12.5766 7.46517 12.426 7.54293 12.2867L7.79541 11.8679L8.33445 11.9446L8.25093 11.7569C8.13813 11.5089 8.30997 11.1936 8.32821 11.0119C8.32197 11.067 8.27061 11.0792 8.21109 11.0792C8.15637 11.0792 8.09589 11.0693 8.05557 11.0693C8.03973 11.0693 8.02581 11.0707 8.01861 11.0759L7.87269 11.163L7.75749 11.0632C7.74357 11.0444 7.73925 10.9987 7.77285 10.9649L8.03973 10.6712L7.72485 10.3098L8.16549 10.5277L8.30037 10.3672C8.33733 10.403 8.32101 10.4957 8.32101 10.4957C8.45877 10.4994 8.84517 10.7089 8.86533 11.1983C8.86677 11.2133 8.86677 11.2298 8.86677 11.2463L8.87685 11.2623C8.90421 11.2994 8.97957 11.394 9.07509 11.4025L9.68469 11.4618H9.68709C9.75429 11.4618 9.88725 11.3846 10.0577 11.3846C10.1513 11.3846 10.2545 11.4082 10.3649 11.4764C10.3649 11.4764 10.4205 11.4331 10.5103 11.4284C10.517 11.4274 10.5247 11.4274 10.5309 11.4274C10.8045 11.4274 10.9183 11.6703 11.0652 11.8722C11.1756 12.0256 11.3229 12.2533 11.3229 12.2533C11.2687 12.3169 11.2178 12.3522 11.1329 12.3522C11.1064 12.3522 11.08 12.3497 11.0541 12.3446C10.7613 12.2914 10.7186 11.6999 10.5516 11.6529C10.5428 11.6506 10.5338 11.6495 10.5247 11.6496C10.4709 11.6496 10.4474 11.6966 10.4474 11.6966C10.5242 11.8985 10.4791 11.9799 10.5617 12.1357C10.6231 12.251 10.7321 12.3456 10.7772 12.3907C10.7772 12.3907 10.7652 12.4783 10.7517 12.5437V12.5432ZM10.1906 13.1644C10.109 13.1644 10.0332 13.1653 9.96501 13.1682L10.1436 12.6218C10.1714 12.546 10.0303 12.4486 9.97221 12.363C10.0601 12.4176 10.2881 12.5371 10.398 12.5842C10.3267 12.7768 10.2576 12.9703 10.1906 13.1644ZM7.53525 8.24109L7.56069 7.29144L7.77765 7.06603L7.91397 7.3465L7.64517 8.25803L7.53477 8.24156L7.53525 8.24109ZM7.69125 8.53568C7.7242 8.59754 7.77406 8.6492 7.83525 8.68486C7.83358 8.77512 7.82475 8.86511 7.80885 8.95403C7.80405 8.97474 7.79925 8.99403 7.79301 9.01333C7.79013 9.02556 7.78629 9.03544 7.78389 9.04345C7.71717 9.04345 7.58709 9.03545 7.48101 8.99733C7.36293 8.95497 7.18677 8.74227 7.22757 8.50792C7.27845 8.47733 7.39653 8.41192 7.50741 8.41192C7.59237 8.41192 7.65045 8.45145 7.69125 8.53568ZM10.2045 8.79074C10.038 8.91168 9.60789 9.21992 9.45189 9.32721L7.95045 9.0618L7.96101 9.02274C7.98021 8.94603 8.00085 8.84156 8.00181 8.71874L9.26373 8.7385L9.28773 8.71497C9.30693 8.69615 9.70677 8.31639 9.91029 8.0985C9.95877 8.15827 10.0193 8.21474 10.0989 8.26462C10.0721 8.4105 10.0831 8.61662 10.2045 8.79074ZM8.16309 6.60768C8.34405 6.78368 8.52021 6.89333 8.68821 6.95356C8.66661 7.03827 8.63781 7.21427 8.71845 7.38886C8.78469 7.53003 8.90469 7.63827 9.07797 7.71074C9.09717 7.88486 9.20901 8.14697 9.51957 8.26274C9.38325 8.39733 9.25077 8.52439 9.19797 8.57521L7.93845 8.55592C7.89685 8.53641 7.86234 8.50488 7.83957 8.46556C7.83717 8.45945 7.83285 8.45615 7.82997 8.44956L8.03589 8.4825L8.04885 8.48297C8.06822 8.48311 8.08699 8.47644 8.10178 8.46419C8.11657 8.45193 8.1264 8.43489 8.12949 8.41615C8.13297 8.39507 8.1278 8.3735 8.11512 8.35613C8.10245 8.33877 8.08329 8.32702 8.06181 8.32345L7.80885 8.28392L8.08917 7.33286L7.82373 6.78368L7.39797 7.22603L7.37205 8.21474L7.08597 8.17003C7.04181 8.16156 6.99957 8.19356 6.99141 8.23733C6.98822 8.25851 6.99361 8.28008 7.00644 8.29741C7.01927 8.31474 7.03852 8.32645 7.06005 8.33003L7.18005 8.34792C7.13685 8.37192 7.10853 8.39121 7.10517 8.39356L7.08117 8.4105L7.07445 8.43968C7.00485 8.71733 7.16229 8.98086 7.33221 9.0985L7.32597 9.1338C7.31925 9.17615 7.32885 9.2185 7.35477 9.25286C7.36953 9.27373 7.38927 9.29073 7.41229 9.30238C7.4353 9.31403 7.46087 9.31997 7.48677 9.31968C7.52315 9.31939 7.55835 9.30705 7.58667 9.28467C7.61499 9.26228 7.63476 9.23117 7.64277 9.19639C7.70613 9.20345 7.76421 9.20533 7.80357 9.20533H7.83765L9.48933 9.4985L9.51765 9.48015C9.64917 9.3898 10.1513 9.03074 10.3154 8.91168C10.361 8.9498 10.4114 8.98462 10.4724 9.01333C10.4191 9.18886 10.4157 9.4585 10.626 9.67215H6.41637V7.28627C6.41637 7.05474 6.34773 6.82227 6.26613 6.60768H8.16309ZM7.93557 3.00768L9.03429 3.37333V5.06839L8.22549 4.64956L7.93557 3.00721V3.00768ZM10.6159 2.80297C10.6159 2.38933 9.90693 2.01709 9.12453 2.01709H9.11973C8.33733 2.01709 7.62885 2.38933 7.62885 2.80297L7.64421 2.90462L7.95669 4.66603L7.64277 4.84486L6.83109 5.31074H6.83397C6.83397 5.31074 6.65157 5.40297 6.56661 5.45944C6.25749 5.67027 6.19173 5.97803 6.37125 6.10509C6.41541 5.85427 6.61749 5.59215 6.99525 5.59215C7.26789 5.59215 7.47525 5.7305 7.64325 5.93709C7.68645 5.98933 7.72725 6.04533 7.76517 6.10509C7.81221 6.18086 7.85973 6.24768 7.90629 6.31168H5.81445C5.96805 6.61521 6.11445 6.93662 6.11445 7.2858V11.8326C6.11445 12.9329 6.97605 13.458 7.90821 13.458C8.62869 13.458 8.72565 13.426 9.12309 13.8147C9.51861 13.426 9.61605 13.458 10.337 13.458C11.2697 13.458 12.1298 12.9329 12.1298 11.8326V7.2858C12.1298 6.93662 12.2762 6.61521 12.4308 6.31168H10.338C10.385 6.24768 10.4321 6.18086 10.4791 6.10509C10.5175 6.04533 10.5583 5.98933 10.6005 5.93709C10.7695 5.72956 10.9769 5.59215 11.2495 5.59215C11.6273 5.59215 11.8289 5.85427 11.8735 6.10509C12.053 5.97803 11.9882 5.67027 11.6767 5.45944C11.5941 5.40297 11.4108 5.31074 11.4108 5.31074H11.4141L10.6005 4.84486L10.2885 4.66603L10.6005 2.90462L10.6159 2.80297Z" fill="#1A1919"/>
<path d="M24.0577 10.3811H25.4977V7.09642H27.4753V5.90112H22.0801V7.09642H24.0577V10.3811ZM31.8433 5.90112L29.4433 8.50818V5.90112H28.0513V10.3811H29.2801L31.6801 7.77406V10.3811H33.0721V5.90112H31.8433ZM35.5186 8.71524H37.7554V10.3811H39.1474V5.90112H37.7554V7.53877H35.5186V5.90112H34.1266V10.3811H35.5186V8.71524ZM43.0239 10.3811C43.3407 10.3811 43.6287 10.3529 43.8975 10.2776C44.6175 10.0799 45.0879 9.50583 45.0879 8.72465C45.0879 7.98112 44.6847 7.46348 44.0415 7.22818C43.7343 7.11524 43.3695 7.10583 43.0239 7.10583H41.5935V5.90112H40.2015V10.3811H43.0239ZM41.5935 8.15995H42.7839C42.9759 8.15995 43.1583 8.15995 43.3215 8.21642C43.5519 8.29171 43.6863 8.47995 43.6863 8.70583C43.6863 8.94112 43.5519 9.13877 43.3311 9.23289C43.1775 9.29877 43.0239 9.29877 42.7839 9.29877H41.5935V8.15995ZM47.1999 8.687H47.5839L49.2447 10.3811H51.0975L48.7839 8.047L51.0111 5.90112H49.2639L47.5839 7.58583H47.1999V5.90112H45.8079V10.3811H47.1999V8.687Z" fill="black"/>
<path d="M53.9615 5.77874C52.0895 5.77874 50.9663 6.81403 50.9663 8.1505C50.9663 9.48697 52.0895 10.5223 53.9615 10.5223C55.8239 10.5223 56.9471 9.48697 56.9471 8.1505C56.9471 6.81403 55.8239 5.77874 53.9615 5.77874ZM53.9615 9.4305C53.0303 9.4305 52.4351 8.88462 52.4351 8.1505C52.4351 7.41638 53.0303 6.87991 53.9615 6.87991C54.8831 6.87991 55.4879 7.41638 55.4879 8.1505C55.4879 8.88462 54.8831 9.4305 53.9615 9.4305ZM61.583 6.09874V5.64697H60.191V6.09874C58.4438 6.13638 57.3974 6.86109 57.3974 8.14109C57.3974 9.42109 58.4438 10.0893 60.191 10.127V10.5787H61.583V10.127C63.3398 10.0893 64.3862 9.42109 64.3862 8.14109C64.3862 6.86109 63.3398 6.13638 61.583 6.09874ZM60.191 9.16697C59.231 9.12933 58.8085 8.74344 58.8085 8.14109C58.8085 7.53874 59.231 7.1058 60.191 7.06815V9.16697ZM61.583 9.16697V7.06815C62.5526 7.1058 62.9653 7.53874 62.9653 8.14109C62.9653 8.74344 62.5526 9.12933 61.583 9.16697ZM69.0172 6.09874V5.64697H67.6252V6.09874C65.878 6.13638 64.8316 6.86109 64.8316 8.14109C64.8316 9.42109 65.878 10.0893 67.6252 10.127V10.5787H69.0172V10.127C70.774 10.0893 71.8204 9.42109 71.8204 8.14109C71.8204 6.86109 70.774 6.13638 69.0172 6.09874ZM67.6252 9.16697C66.6652 9.12933 66.2428 8.74344 66.2428 8.14109C66.2428 7.53874 66.6652 7.1058 67.6252 7.06815V9.16697ZM69.0172 9.16697V7.06815C69.9868 7.1058 70.3996 7.53874 70.3996 8.14109C70.3996 8.74344 69.9868 9.12933 69.0172 9.16697Z" fill="black"/>
</svg>
