<svg width="32" height="10" viewBox="0 0 32 10" fill="none" xmlns="http://www.w3.org/2000/svg">
<path d="M20.8428 0C18.5706 0 16.5402 1.13586 16.5402 3.23444C16.5402 5.64112 20.1413 5.80735 20.1413 7.0164C20.1413 7.52548 19.5364 7.98119 18.5033 7.98119C17.0371 7.98119 15.9412 7.34443 15.9412 7.34443L15.4723 9.46213C15.4723 9.46213 16.7347 10 18.4108 10C20.8949 10 22.8496 8.80837 22.8496 6.6739C22.8496 4.13081 19.2335 3.96952 19.2335 2.84732C19.2335 2.44853 19.7301 2.01158 20.7602 2.01158C21.9226 2.01158 22.8709 2.47467 22.8709 2.47467L23.3298 0.42933C23.3298 0.42933 22.2979 0 20.8428 0ZM0.0550172 0.154366L0 0.463097C0 0.463097 0.955887 0.631826 1.81682 0.968403C2.92534 1.35436 3.0043 1.57904 3.191 2.27689L5.22538 9.84081H7.95249L12.1538 0.154366H9.43295L6.73335 6.74023L5.63176 1.15774C5.53073 0.518831 5.01901 0.154366 4.39262 0.154366H0.0550172ZM13.2479 0.154366L11.1135 9.84081H13.708L15.8349 0.154366H13.2479ZM27.7187 0.154366C27.093 0.154366 26.7615 0.477427 26.5183 1.04197L22.7171 9.84081H25.438L25.9644 8.37434H29.2792L29.5992 9.84081H32L29.9056 0.154366H27.7187ZM28.0725 2.77135L28.879 6.40618H26.7183L28.0725 2.77135Z" fill="#1434CB"/>
</svg>
